<?xml version="1.0" encoding="utf-8"?>
<!-- Generator: Adobe Illustrator 19.0.0, SVG Export Plug-In . SVG Version: 6.00 Build 0)  -->
<svg version="1.1" id="图层_1" xmlns="http://www.w3.org/2000/svg" xmlns:xlink="http://www.w3.org/1999/xlink" x="0px" y="0px"
	 viewBox="0 0 258.362 50" enable-background="new 0 0 258.362 50" xml:space="preserve">
<g id="XMLID_1_">
	<g id="XMLID_46_">
		<path id="XMLID_66_" fill="#231815" d="M169.917,7.104c-0.666,1.822-1.482,3.985-2.242,5.772c-0.06,0.142-0.025,0.302,0.075,0.419
			c1.571,1.841,1.959,3.465,1.959,4.851c0,1.18-0.279,2.199-0.88,2.615c-0.324,0.254-0.741,0.394-1.18,0.44
			c-0.486,0.046-1.065,0.046-1.551,0.024c-0.023-0.394-0.162-0.973-0.417-1.389c0.556,0.046,1.018,0.046,1.389,0.023
			c0.277-0.023,0.532-0.069,0.716-0.208c0.371-0.277,0.511-0.926,0.511-1.644c0-1.229-0.432-2.759-2.003-4.551
			c-0.102-0.116-0.138-0.279-0.079-0.422c0.686-1.664,1.364-3.591,1.851-5.074h-2.827c-0.23,0-0.416,0.186-0.416,0.416v18.266
			h-1.434V6.988c0-0.23,0.186-0.416,0.416-0.416h4.862l0.232-0.07L169.917,7.104z M183.321,22.152h-4.747
			c-0.23,0-0.416,0.186-0.416,0.416v4.075h-1.504v-4.075c0-0.23-0.186-0.416-0.416-0.416h-6.067v-1.435h6.067
			c0.23,0,0.416-0.186,0.416-0.416v-3.057c0-0.23-0.186-0.416-0.416-0.416h-2.64c-1.042,0-1.759,0.139-1.968,0.324
			c-0.092-0.324-0.347-1.042-0.509-1.435c0.394-0.116,0.763-0.834,1.204-1.876c0.25-0.521,0.8-1.868,1.381-3.517
			c0.095-0.27-0.106-0.557-0.392-0.557h-2.934V8.354h3.622c0.186,0,0.351-0.121,0.404-0.298c0.242-0.808,0.461-1.635,0.626-2.48
			l1.551,0.348c-0.207,0.787-0.417,1.62-0.671,2.431h7.108v1.412h-7.274c-0.177,0-0.333,0.114-0.39,0.282
			c-0.652,1.937-1.402,3.799-2.175,5.366h3.057c0.23,0,0.416-0.186,0.416-0.416v-3.057h1.504v3.057c0,0.23,0.186,0.416,0.416,0.416
			h4.123v1.413h-4.123c-0.23,0-0.416,0.186-0.416,0.416v3.057c0,0.23,0.186,0.416,0.416,0.416h4.747V22.152z"/>
		<path id="XMLID_63_" fill="#231815" d="M194.053,11.518c-0.061,0.991-0.15,1.982-0.268,2.973
			c-0.029,0.246,0.159,0.461,0.407,0.461h9.376c0,0-0.025,0.533-0.047,0.764c-0.486,6.574-0.926,9.052-1.851,9.955
			c-0.486,0.532-1.02,0.671-1.876,0.741c-0.788,0.046-2.292,0-3.843-0.093c-0.045-0.463-0.254-1.088-0.532-1.504
			c1.644,0.162,3.263,0.185,3.866,0.185c0.509,0,0.811-0.046,1.088-0.278c0.652-0.584,1.085-2.74,1.49-7.823
			c0.019-0.242-0.172-0.464-0.414-0.464h-7.614c-0.197,0-0.363,0.14-0.401,0.333c-0.774,3.995-2.533,7.715-6.812,9.946
			c-0.232-0.394-0.718-0.926-1.112-1.204c5.833-2.882,6.561-8.722,6.853-13.939c0.013-0.239-0.178-0.437-0.417-0.437h-5.902V9.628
			h19.817v1.504h-11.398C194.244,11.132,194.066,11.3,194.053,11.518z M196.252,9.582c-0.324-0.926-1.02-2.431-1.621-3.542
			l1.482-0.58c0.601,1.112,1.342,2.524,1.644,3.45L196.252,9.582z"/>
		<path id="XMLID_60_" fill="#231815" d="M229.415,24.282v1.504h-20.603v-1.504h12.978c0.205,0,0.378-0.14,0.41-0.342
			c0.149-0.952,0.309-1.994,0.459-3.048c0.035-0.25-0.16-0.476-0.413-0.476h-9.548c-0.269,0-0.469-0.238-0.406-0.5
			c0.714-2.941,1.609-7.459,2.204-10.993c0.043-0.254-0.155-0.476-0.412-0.476h-4.509V6.965h19.146v1.482h-12.154
			c-0.201,0-0.371,0.138-0.406,0.336c-0.169,0.956-0.366,1.967-0.565,3.009c-0.049,0.256,0.147,0.498,0.408,0.498h7.833l0.277-0.069
			l1.135,0.139c-0.289,2.978-0.898,7.702-1.458,11.455c-0.037,0.251,0.158,0.468,0.412,0.468H229.415z M222.955,18.589
			c0.193-1.58,0.384-3.112,0.53-4.393c0.028-0.247-0.167-0.447-0.416-0.447h-7.501c-0.199,0-0.371,0.143-0.408,0.339
			c-0.292,1.542-0.597,3.056-0.875,4.38c-0.054,0.258,0.145,0.489,0.409,0.489h7.848C222.752,18.957,222.929,18.797,222.955,18.589z
			"/>
		<path id="XMLID_47_" fill="#231815" d="M239.383,22.013v4.653h-1.342v-3.928c0-0.258-0.233-0.454-0.487-0.409l-5.601,0.98
			l-0.324-1.458l1.504-0.208V7.984h-1.319V6.572h8.612v1.412h-1.042v12.663l1.853-0.278l0.092,1.319L239.383,22.013z M234.521,8.4
			v2.571c0,0.23,0.186,0.416,0.416,0.416h2.688c0.23,0,0.416-0.186,0.416-0.416V8.4c0-0.23-0.186-0.416-0.416-0.416h-2.688
			C234.707,7.984,234.521,8.17,234.521,8.4z M234.937,16.155h2.688c0.23,0,0.416-0.186,0.416-0.416v-2.617
			c0-0.23-0.186-0.416-0.416-0.416h-2.688c-0.23,0-0.416,0.186-0.416,0.416v2.617C234.521,15.969,234.707,16.155,234.937,16.155z
			 M234.996,21.355c0.85-0.141,1.76-0.281,2.689-0.422c0.203-0.031,0.355-0.206,0.355-0.411v-2.631c0-0.23-0.186-0.416-0.416-0.416
			h-2.688c-0.23,0-0.416,0.186-0.416,0.416v3.054C234.521,21.201,234.743,21.396,234.996,21.355z M247.434,17.591
			c-0.283,0-0.492,0.282-0.405,0.551c1.068,3.29,3.065,5.955,5.873,7.227c-0.347,0.302-0.811,0.857-1.018,1.273
			c-2.278-1.18-4.019-3.212-5.239-5.782c-0.153-0.323-0.612-0.339-0.748-0.008c-0.848,2.069-2.351,4.165-5.01,5.998
			c-0.254-0.347-0.741-0.81-1.157-1.088c3.59-2.327,4.93-5.145,5.406-7.685c0.048-0.255-0.157-0.487-0.416-0.487h-4.202v-1.435
			h4.839c0.045-0.579,0.045-1.134,0.045-1.644v-2.708h-4.283v-1.435h5.57c0.136,0,0.26-0.058,0.339-0.168
			c0.875-1.223,1.873-2.97,2.449-4.23l1.551,0.463c-0.743,1.297-1.668,2.801-2.479,3.936h3.242v1.435h-4.423
			c-0.23,0-0.416,0.186-0.416,0.416v2.316c0,0.509,0,1.041-0.047,1.62h5.764v1.435H247.434z M244.221,10.16
			c-0.417-0.996-1.367-2.524-2.292-3.612l1.227-0.602c0.948,1.065,1.945,2.524,2.385,3.519L244.221,10.16z"/>
	</g>
	<path id="XMLID_23_" fill="#BC2022" d="M37.854,9.198L31.39,20.382c-0.365,0.631-0.366,1.41-0.002,2.042L45.937,47.7
		c0.688,1.196,2.342,1.382,3.275,0.365c3.209-3.495,5.567-7.78,6.728-12.542c0.124-0.509,0.045-1.048-0.218-1.502L41.392,9.199
		C40.606,7.837,38.64,7.837,37.854,9.198z"/>
	<path id="XMLID_22_" fill="#BC2022" d="M33.719,0.566C31.891,0.197,30,0,28.063,0c-2.742,0-5.389,0.394-7.898,1.114
		c-0.592,0.17-1.092,0.569-1.4,1.103L0,34.717h17.676L35.317,4.121C36.135,2.701,35.325,0.891,33.719,0.566z"/>
	<path id="XMLID_21_" fill="#921E22" d="M40.065,46.96l-6.473-11.227c-0.362-0.628-1.03-1.014-1.754-1.014
		c-4.724,0-31.838,0-31.838,0c0.192,0.9,0.426,1.784,0.701,2.65c0,0.001,0.001,0.002,0.001,0.004
		c1.475,4.648,4.109,8.775,7.553,12.064C8.634,49.796,9.137,50,9.662,50h28.647C39.868,50,40.844,48.311,40.065,46.96z"/>
	<path id="XMLID_20_" fill="#BC2022" d="M87.286,40.004c0,0.952-0.772,1.724-1.724,1.724h4.875c0.191-0.539,0.295-1.119,0.295-1.724
		c0-0.605-0.105-1.184-0.295-1.724h-4.875C86.515,38.28,87.286,39.052,87.286,40.004z"/>
	<path id="XMLID_19_" fill="#040000" d="M257.857,47.057l-4.641-4.641l4.641-4.641h0c0.312-0.312,0.505-0.743,0.505-1.219
		c0-0.952-0.772-1.724-1.724-1.724c-0.476,0-0.907,0.193-1.219,0.505l0,0l-4.641,4.641l-4.641-4.641
		c-0.312-0.312-0.743-0.505-1.219-0.505c-0.952,0-1.724,0.772-1.724,1.724c0,0.476,0.193,0.907,0.505,1.219l4.641,4.641
		l-4.641,4.641l0,0c-0.312,0.312-0.505,0.743-0.505,1.219c0,0.952,0.772,1.724,1.724,1.724c0.476,0,0.907-0.193,1.219-0.505v0
		l4.641-4.641l4.641,4.641v0c0.312,0.312,0.743,0.505,1.219,0.505c0.952,0,1.724-0.772,1.724-1.724
		C258.362,47.8,258.169,47.369,257.857,47.057z"/>
	<path id="XMLID_18_" fill="#040000" d="M202.485,38.28h4.998v9.996c0,0.952,0.772,1.724,1.724,1.724s1.724-0.772,1.724-1.724l0,0
		V38.28h4.998c0.952,0,1.724-0.772,1.724-1.724c0-0.952-0.772-1.724-1.724-1.724h-13.443c-0.952,0-1.724,0.772-1.724,1.724
		C200.761,37.509,201.533,38.28,202.485,38.28z"/>
	<path id="XMLID_16_" fill="#040000" d="M239.161,34.833c-0.952,0-1.724,0.772-1.724,1.724v11.72c0,0.952,0.772,1.724,1.724,1.724
		c0.952,0,1.724-0.772,1.724-1.724v-11.72C240.885,35.605,240.113,34.833,239.161,34.833z"/>
	<path id="XMLID_15_" fill="#040000" d="M152.195,38.28h8.445c0.952,0,1.724-0.772,1.724-1.724c0-0.952-0.772-1.724-1.724-1.724
		h-8.445c-0.952,0-1.724,0.772-1.724,1.724C150.471,37.509,151.243,38.28,152.195,38.28z"/>
	<path id="XMLID_14_" fill="#040000" d="M160.64,46.553h-8.445c-0.952,0-1.724,0.772-1.724,1.724c0,0.952,0.772,1.724,1.724,1.724
		h8.445c0.952,0,1.724-0.772,1.724-1.724C162.364,47.324,161.592,46.553,160.64,46.553z"/>
	<path id="XMLID_13_" fill="#040000" d="M148.921,44.14h8.445c0.952,0,1.724-0.772,1.724-1.724c0-0.952-0.772-1.724-1.724-1.724h0
		h-8.445h0c-0.952,0-1.724,0.772-1.724,1.724C147.197,43.369,147.969,44.14,148.921,44.14z"/>
	<path id="XMLID_12_" fill="#040000" d="M179.837,34.833c-0.434,0-0.829,0.161-1.132,0.426l-0.001-0.001l-5.589,4.872l-5.589-4.872
		l-0.001,0.001c-0.303-0.264-0.698-0.426-1.132-0.426c-0.952,0-1.724,0.772-1.724,1.724v11.72c0,0.952,0.772,1.724,1.724,1.724
		c0.952,0,1.724-0.772,1.724-1.724v-7.93l3.865,3.37l0.001-0.001c0.303,0.264,0.698,0.426,1.132,0.426s0.829-0.161,1.132-0.426
		l0.001,0.001l3.865-3.37v7.93c0,0.952,0.772,1.724,1.724,1.724c0.952,0,1.724-0.772,1.724-1.724v-11.72
		C181.561,35.605,180.789,34.833,179.837,34.833z"/>
	<path id="XMLID_11_" fill="#040000" d="M73.053,47.404l-6.699-11.758l-0.001,0.001c-0.297-0.52-0.855-0.871-1.497-0.871
		c-0.638,0-1.194,0.347-1.492,0.862l-0.001-0.001l-6.766,11.72l0.001,0.001c-0.147,0.254-0.232,0.547-0.232,0.861
		c0,0.952,0.772,1.724,1.724,1.724h6.722c0.952,0,1.724-0.772,1.724-1.724c0-0.952-0.772-1.724-1.724-1.724h-3.736l3.771-6.531
		l5.211,9.147l0.002-0.001c0.302,0.499,0.848,0.833,1.474,0.833c0.952,0,1.724-0.772,1.724-1.724
		C73.257,47.924,73.183,47.647,73.053,47.404L73.053,47.404z"/>
	<path id="XMLID_10_" fill="#040000" d="M185.594,50c0.638,0,1.193-0.347,1.492-0.862l0.001,0.001l5.264-9.117l5.211,9.147
		l0.002-0.001c0.302,0.499,0.848,0.833,1.474,0.833c0.952,0,1.724-0.772,1.724-1.724c0-0.295-0.074-0.572-0.205-0.814l0.001,0
		l-6.699-11.758l-0.001,0.001c-0.297-0.52-0.855-0.871-1.497-0.871c-0.638,0-1.193,0.347-1.492,0.862l-0.001-0.001l-6.766,11.72
		l0.001,0.001c-0.147,0.254-0.232,0.547-0.232,0.861C183.87,49.228,184.642,50,185.594,50z"/>
	<path id="XMLID_9_" fill="#040000" d="M90.529,47.462l-1.885-3.309c0.816-0.607,1.448-1.448,1.794-2.425h-4.875h-4.875h-1.673
		V38.28h1.673h4.875h4.875c-0.71-2.008-2.624-3.447-4.875-3.447l0,0H77.29c-0.952,0-1.724,0.772-1.724,1.724v11.72
		c0,0.952,0.772,1.724,1.724,1.724s1.724-0.772,1.724-1.724v0v-3.101h6.245l2.275,3.993l0.002-0.001
		C87.838,49.666,88.384,50,89.01,50c0.952,0,1.724-0.772,1.724-1.724C90.733,47.982,90.659,47.705,90.529,47.462L90.529,47.462z"/>
	<path id="XMLID_8_" fill="#040000" d="M106.487,46.553h-5.86c-2.284,0-4.136-1.852-4.136-4.136c0-2.284,1.852-4.136,4.136-4.136
		h5.86c0.952,0,1.724-0.772,1.724-1.724c0-0.952-0.772-1.724-1.724-1.724h-5.86c-4.188,0-7.583,3.395-7.583,7.583
		S96.439,50,100.627,50h5.86c0.952,0,1.724-0.772,1.724-1.724C108.21,47.324,107.438,46.553,106.487,46.553z"/>
	<path id="XMLID_7_" fill="#040000" d="M112.244,50c0.638,0,1.193-0.347,1.492-0.862l0.001,0.001L119,40.021l5.211,9.147
		l0.002-0.001c0.302,0.499,0.848,0.833,1.474,0.833c0.952,0,1.724-0.772,1.724-1.724c0-0.295-0.074-0.572-0.205-0.814l0.001,0
		l-6.699-11.758l-0.001,0.001c-0.297-0.52-0.855-0.871-1.497-0.871c-0.638,0-1.193,0.347-1.492,0.862l-0.001-0.001l-6.766,11.72
		l0.001,0.001c-0.147,0.254-0.232,0.547-0.232,0.861C110.52,49.228,111.292,50,112.244,50z"/>
	<path id="XMLID_6_" fill="#040000" d="M143.164,34.833c-0.952,0-1.724,0.772-1.724,1.724v7.558l-8.777-8.777
		c-0.312-0.312-0.743-0.505-1.219-0.505c-0.952,0-1.724,0.772-1.724,1.724v11.72c0,0.952,0.772,1.724,1.724,1.724
		c0.952,0,1.724-0.772,1.724-1.724v-7.558l8.777,8.777v0c0.312,0.312,0.743,0.505,1.219,0.505c0.952,0,1.724-0.772,1.724-1.724
		v-11.72C144.887,35.605,144.116,34.833,143.164,34.833z"/>
	<path id="XMLID_5_" fill="#BC2022" d="M231.681,40.004c0,0.952-0.772,1.724-1.724,1.724h4.875c0.191-0.539,0.295-1.119,0.295-1.724
		s-0.105-1.184-0.295-1.724h-4.875C230.909,38.28,231.681,39.052,231.681,40.004z"/>
	<path id="XMLID_4_" fill="#040000" d="M234.924,47.462l-1.885-3.309c0.816-0.607,1.448-1.448,1.794-2.425h-4.875h-4.876h-1.673
		V38.28h1.673h4.876h4.875c-0.71-2.008-2.624-3.447-4.875-3.447l0,0h-8.272c-0.952,0-1.724,0.772-1.724,1.724v11.72
		c0,0.952,0.772,1.724,1.724,1.724c0.952,0,1.724-0.772,1.724-1.724v0v-3.101h6.245l2.275,3.993l0.002-0.001
		c0.302,0.499,0.848,0.833,1.474,0.833c0.952,0,1.724-0.772,1.724-1.724C235.128,47.982,235.054,47.705,234.924,47.462
		L234.924,47.462z"/>
	<polygon id="XMLID_3_" fill="#BC2022" points="258.362,10.92 247.442,0 258.362,0 	"/>
</g>
</svg>
