<?xml version="1.0" encoding="utf-8"?>
<!-- Generator: Adobe Illustrator 21.0.0, SVG Export Plug-In . SVG Version: 6.00 Build 0)  -->
<svg version="1.1" id="图层_1" xmlns="http://www.w3.org/2000/svg" xmlns:xlink="http://www.w3.org/1999/xlink" x="0px" y="0px"
	 viewBox="0 0 1000 1000" style="enable-background:new 0 0 1000 1000;" xml:space="preserve">
<style type="text/css">
	.st0{fill:#252638;}
	.st1{fill:#FCF3E2;}
	.st2{fill:#DCBAAE;}
	.st3{fill:#2F2A48;}
	.st4{fill:#FFFFFF;}
	.st5{fill:#000001;}
	.st6{fill:#A3365F;}
	.st7{fill:#C95C86;}
	.st8{fill:#DAAFC0;}
	.st9{fill:#ECD7DE;}
	.st10{fill:#F7989E;}
	.st11{opacity:0.34;fill:#F2F2F2;}
</style>
<g>
	<rect class="st0" width="1000" height="1000"/>
	<path class="st1" d="M52.9,723.5c10,81.1,55.5,113.3,116.4,155.2S374.5,993,465.6,999.2c49.2,3.3,135.1-3.9,211-19.6
		c64.8-13.4,122.2-34.4,143.1-45.3c45.4-23.7,70.6-69.8,81.5-98.4s75.9-192,75.9-192l18.1-243.5L658.5,61.9L359.6,44.8L76.5,326.7
		C76.5,326.7,42.9,642.4,52.9,723.5z"/>
	<path class="st2" d="M29.6,361c0,0,262.7,25.8,394.6,86.8C414.9,345.5,490,118.1,490,118.1c-12.4,55.8-21.9,135-18.4,212.6
		c2.9,64.6,16.4,127.8,30.4,179.4c-2-69.6,5.8-128.7,16.2-184.2C540.3,208,595.8,72.3,595.8,72.3S527.4,217,617.6,409.5
		c-10.3-51.7-12.5-115.7,1.6-178.1c0,0-1.8,128.9,32.8,244.5c94.8-3.3,338.3,64,338.3,64l-7.8-499.1L117.9,60.9L29.6,361z"/>
	<path class="st3" d="M133.9,0L67.4,339.4c0,0,195.6,14.9,334.4,40.7c-5.3-95,61.8-250.7,61.8-250.7s-33.8,145.9,12,350.4
		c0.7-164.8,86.1-354.2,86.1-354.2s-14.2,172,31.6,261.3c-19.4-156.8,37.4-232.7,37.4-232.7s2,163.8,36.8,260.1
		c136.1,21.1,320,75.5,320,75.5V0H133.9z"/>
	<path d="M940.3,0c18,94.9,40.6,181.8,36.6,387.1c-3.1,160.8-42.6,338.4-113.7,458.6l136.8-38.4V0H940.3z"/>
	<path class="st3" d="M950.6,0c25.1,136.7,38.5,266.1,35.4,390.9c-4.5,179.6-39.6,342.2-92.9,440.9l106.9-32.1V0H950.6z"/>
	<path class="st4" d="M920.6,534.9c0-0.3,0.1-0.5,0.1-0.8C845.3,523.8,774,506.6,716.6,488c-3.7-1.2-20.5-1.4-36.5,0.1
		c-0.4,0-0.7,0.1-1.1,0.1c-3.8,6.9-7.4,14.1-10.7,21.3c-29.2,63.5,8.6,206.6,83.9,206.6c58.5,0,111.1-39.7,138.6-90.9L920.6,534.9z"
		/>
	<path class="st4" d="M351.3,423.6c-68.6-6.1-160.9-22.3-222.6-39.3l-2.7,92.5c-0.1-0.8-0.3-1.6-0.4-2.4c2.1,14,5.6,27.4,11.1,40.9
		c24.4,59.8,77,109.4,122.5,109.4c69.4,0,129.8-113.7,121.7-181.2C369.5,436,355.1,426.3,351.3,423.6z"/>
	<path class="st5" d="M693.2,551.8c-19.1,70.9,2.3,138.4,47.8,150.6c45.5,12.3,97.9-35.3,117.1-106.2c6.7-24.9,8.4-49.4,5.8-71.2
		c-51.8-9.6-100.3-22-141.9-35.2C709.8,506.9,699.6,528,693.2,551.8z"/>
	<path class="st6" d="M703.9,555.5c-17.6,65.4,0.3,127.2,40.1,137.9c39.8,10.7,86.3-33.6,104-99.1c6.8-25.3,8.3-50,5.3-71.4
		c-43.2-8.4-83.8-18.6-119.7-29.6C720.9,510,710.4,531.3,703.9,555.5z"/>
	<path class="st7" d="M778.8,617.5c-10.4-3.1-24.5,0-35.4,5.6c-18.3,9.4-32.4,29.6-29.5,47.2c7.7,11.6,17.9,19.8,30.2,23.1
		c15.3,4.1,31.5,0.1,46.7-10.1c11.4-12.1,14.3-29.1,12.3-40C800.5,629.5,788.4,620.3,778.8,617.5z"/>
	<circle class="st8" cx="807.4" cy="637.6" r="16"/>
	<ellipse transform="matrix(0.191 -0.9816 0.9816 0.191 44.858 1232.9189)" cx="770.4" cy="589.2" rx="35.1" ry="11.4"/>
	<path d="M197.6,400.5c-9,19.3-15.2,42-17.3,66.7c-6.3,74.3,26.7,137.7,73.7,141.7c47,4,90.2-53,96.5-127.3
		c1.7-20.7,0.5-40.5-3.3-58.4C301.9,419,247.1,410.6,197.6,400.5z"/>
	<path class="st6" d="M193.5,468.7c-6.9,67.7,20.8,126,61.8,130.2c41,4.2,79.9-47.3,86.8-115c2.2-22,0.8-43-3.5-61.5
		c-39-4-84.1-10.8-126.4-19C202.7,421.8,196,444.2,193.5,468.7z"/>
	<path class="st7" d="M304.6,576.6c-1.1-23.7-33.6-60.1-54.5-60.1c-21.3,0-38.5,19.2-38.5,42.9c0,3.3,0.4,6.6,1,9.6
		c10.9,17.2,25.6,28.2,42.6,30C272.9,600.7,290.2,592.2,304.6,576.6z"/>
	<ellipse transform="matrix(0.1473 -0.9891 0.9891 0.1473 -260.1884 680.7051)" cx="264.7" cy="491.3" rx="35.1" ry="11.4"/>
	<circle class="st8" cx="297.4" cy="547.8" r="16"/>
	<path class="st9" d="M248.3,409.9c-3.5-0.6-7-1.2-10.4-1.8c-0.4-0.1-0.7-0.1-1.1-0.2c-3.7-0.7-7.4-1.3-11.1-2
		c-0.8-0.2-1.7-0.3-2.5-0.5c-3.7-0.7-7.3-1.4-11-2.1c-2.6,5.1-5,10.5-7.2,16.2c-5.3,21.7,3.4,43.3,18.8,47.1
		c15.4,3.8,32.3-10.7,37.6-32.4c1.9-7.7,2.1-15.3,0.9-22c-0.2,0-0.3-0.1-0.5-0.1c-3.8-0.6-7.5-1.2-11.3-1.9
		C249.8,410.2,249,410.1,248.3,409.9z"/>
	<path class="st9" d="M725.9,513.6c-8.6,21-3.7,43.7,10.6,49.6c14.2,5.8,32.7-6.4,41.3-27.4c4.2-10.1,5.2-20.4,3.6-29
		c-14.8-3.8-29.1-7.8-42.7-11.9C733.6,499.6,729.1,506,725.9,513.6z"/>
	<path class="st5" d="M597.9,913.8c-22.9,11.8-87.2,24-124.6,15.1l0.2-4.1c38.4,6.8,92.9-1.4,122.3-15.6L597.9,913.8z"/>
	<circle class="st5" cx="890" cy="687.4" r="7.5"/>
	<path class="st5" d="M144.9,219.6c47.1-19.6,168.1-35,240.3-14.2l-0.1,7.6c-71.1-18.1-183.2-8.7-240.2,14.2V219.6z"/>
	<path class="st5" d="M723.6,266.3c47.8-0.6,164.7,30.2,219.4,76.2l-3.7,6.7c-58-43.3-157.9-74.7-218.5-75.5L723.6,266.3z"/>
	<path class="st5" d="M76.5,366.3c8.5,4.2,20.3,8.6,34.6,12.9c0,0,5,43.3,14.9,97.6l2.7-92.5c61.7,16.9,154,33.2,222.6,39.3
		c6.4,4.6,44.2,30,44.2,30l-18.8-28.1c0,0,26.8,0.9,37,0.3C376.3,403.4,181.9,364.3,76.5,366.3z"/>
	<path class="st5" d="M648.8,462.6c8.5,3.7,17.7,7.5,27.6,11.2l-30.3,19c0,0,16.6-3.2,34-4.8c16.1-1.4,32.8-1.3,36.5-0.1
		c57.4,18.6,128.7,35.8,204.2,46.1l-30.1,91.4l48.9-89c15.8,1.9,31.8,3.5,47.9,4.8C910.4,506.1,754.6,466.2,648.8,462.6z"/>
	
		<ellipse transform="matrix(0.1337 -0.991 0.991 0.1337 -56.647 1475.8793)" class="st10" cx="815.9" cy="770.3" rx="31.6" ry="103.3"/>
	<path d="M203.4,0H0v695.3l92.5,39.9c-20.2-303.3,18.3-537.5,44.6-602.9C162.2,69.7,185,28.5,203.4,0z"/>
	<path class="st3" d="M97.5,275.3C120.7,120.5,154,66.9,194,0H0v678.2l78.5,35.5c-4.3-84.3-3.4-160.2-0.4-228.4
		C81.6,405.1,88.4,335.5,97.5,275.3z"/>
	<path class="st11" d="M447.5,0H301.2C348,25.5,630.8,170.1,1000,155.5V96.8C741.9,106.4,498.5,19.4,447.5,0z"/>
	
		<ellipse transform="matrix(0.1337 -0.991 0.991 0.1337 -520.1945 735.2706)" class="st10" cx="160.5" cy="665.2" rx="31.6" ry="103.3"/>
</g>
</svg>
