<?xml version="1.0" encoding="utf-8"?>
<!-- Generator: Adobe Illustrator 21.0.0, SVG Export Plug-In . SVG Version: 6.00 Build 0)  -->
<svg version="1.1" id="图层_1" xmlns="http://www.w3.org/2000/svg" xmlns:xlink="http://www.w3.org/1999/xlink" x="0px" y="0px"
	 viewBox="0 0 288 523" style="enable-background:new 0 0 288 523;" xml:space="preserve">
<style type="text/css">
	.st0{fill:#F40060;}
	.st1{fill:#FFFFFF;}
	.st2{font-family:'AdobeSongStd-Light-GBpc-EUC-H';}
	.st3{font-size:12px;}
</style>
<rect class="st0" width="288" height="112.7"/>
<rect y="464.7" class="st0" width="288" height="58.3"/>
<text transform="matrix(1 0 0 1 177.8333 507.5)" class="st1 st2 st3">THAUMY客制化</text>
<g>
	<path class="st1" d="M38.6,36.8c2.3-0.1,2.5-0.6,2.5-2.6V23.7c0-2.1,0-2.5-2.3-2.6v-0.4H45c1.7,0,5.7,0.2,5.7,4.6
		c0,3.8-3.7,5.4-6.1,5.2l-2.1-0.6v4.4c0,2.1,0.2,2.4,2.9,2.6v0.4h-6.8V36.8z M42.5,29.3c0.3,0.1,1,0.4,2.2,0.4
		c2.3,0,4.3-1.2,4.3-4.3c0-2.9-1.7-4.2-4.9-4.2c-0.7,0-1.1,0-1.3,0.1c-0.2,0-0.3,0.1-0.3,0.7V29.3z"/>
	<path class="st1" d="M52.9,36.8c2.3-0.1,2.5-0.6,2.5-2.6V23.7c0-2.1-0.2-2.5-2.5-2.6v-0.4h6.4v0.4c-2.3,0.1-2.5,0.6-2.5,2.6v10.5
		c0,2.1,0.2,2.5,2.5,2.6v0.4h-6.4V36.8z"/>
	<path class="st1" d="M73.7,33.1c-0.2,0.9-0.8,2.9-0.9,4.1H61.3v-0.4c2.2-0.1,2.4-0.6,2.4-2.8V23.7c0-2.1-0.2-2.5-2.5-2.6v-0.4h6.5
		v0.4c-2.4,0.1-2.6,0.6-2.6,2.6v10c0,2.8,0.6,2.9,3.3,2.9c1.6,0,2.8-0.3,3.4-0.9c0.3-0.5,0.9-1.4,1.4-2.5H73.7z"/>
	<path class="st1" d="M75.1,36.8c2.3-0.1,2.5-0.6,2.5-2.6V23.7c0-2.1-0.2-2.5-2.5-2.6v-0.4h6.4v0.4c-2.3,0.1-2.5,0.6-2.5,2.6v10.5
		c0,2.1,0.2,2.5,2.5,2.6v0.4h-6.4V36.8z"/>
	<path class="st1" d="M83.5,36.8c2.3-0.1,2.5-0.6,2.5-2.6V23.7c0-2.1,0-2.5-2.3-2.6v-0.4h6.2c1.7,0,5.7,0.2,5.7,4.6
		c0,3.8-3.7,5.4-6.1,5.2l-2.1-0.6v4.4c0,2.1,0.2,2.4,2.9,2.6v0.4h-6.8V36.8z M87.3,29.3c0.3,0.1,1,0.4,2.2,0.4
		c2.3,0,4.3-1.2,4.3-4.3c0-2.9-1.7-4.2-4.9-4.2c-0.7,0-1.1,0-1.3,0.1c-0.2,0-0.3,0.1-0.3,0.7V29.3z"/>
	<path class="st1" d="M108.3,36.8c1.5-0.2,2.1-0.4,2.1-1c0-0.7-0.8-2.7-1.8-5.2h-6.1c-0.3,0.5-1.6,4.1-1.6,4.9
		c0,0.9,0.7,1.1,2.2,1.3v0.4h-6v-0.4c1.8-0.4,2.2-0.6,3.2-3l5.7-13.4l0.3-0.1l1.8,4.9c1.2,3.3,2.4,6.6,3.4,9.1
		c0.8,1.9,1,2.2,2.8,2.5v0.4h-6V36.8z M105.8,22.8c-1.1,2.3-2.1,4.8-2.9,7.1h5.5L105.8,22.8L105.8,22.8z"/>
	<path class="st1" d="M128.2,33.1c-0.2,0.9-0.8,2.9-0.9,4.1h-11.4v-0.4c2.2-0.1,2.4-0.6,2.4-2.8V23.7c0-2.1-0.2-2.5-2.5-2.6v-0.4
		h6.5v0.4c-2.4,0.1-2.6,0.6-2.6,2.6v10c0,2.8,0.6,2.9,3.3,2.9c1.6,0,2.8-0.3,3.4-0.9c0.3-0.5,0.9-1.4,1.4-2.5H128.2z"/>
	<path class="st1" d="M140.1,36.8c1.5-0.2,2.1-0.4,2.1-1c0-0.7-0.8-2.7-1.8-5.2h-6.1c-0.3,0.5-1.6,4.1-1.6,4.9
		c0,0.9,0.7,1.1,2.2,1.3v0.4h-6v-0.4c1.8-0.4,2.2-0.6,3.2-3l5.7-13.4l0.3-0.1l1.8,4.9c1.2,3.3,2.4,6.6,3.4,9.1
		c0.8,1.9,1,2.2,2.8,2.5v0.4h-6V36.8z M137.6,22.8c-1.1,2.3-2.1,4.8-2.9,7.1h5.5L137.6,22.8L137.6,22.8z"/>
	<path class="st1" d="M155,36.8c2.4-0.2,2.6-0.5,2.6-2.3V24.5c0-1.1-0.1-1.3-1.3-1.4l-1.1-0.1v-0.4c1.6-0.3,2.9-0.8,3.8-1.3v13.3
		c0,1.8,0.2,2.1,2.6,2.3v0.4H155V36.8z"/>
	<path class="st1" d="M171.4,30.6c-0.6,0.3-1,0.4-1.6,0.4c-2.5,0-4.4-1.8-4.4-4.5c0-2.6,1.9-5.3,4.9-5.3c2.9,0,4.8,2.9,4.8,6.3
		c0,4.8-2.6,8-5.9,9.4c-1.6,0.6-2.7,0.8-3.2,0.7l-0.1-0.5c3.7-0.6,6.6-3.2,7.6-7.5L171.4,30.6z M166.9,25.7c0,2.2,1.3,4.2,3.7,4.2
		c1.2,0,2.4-0.5,3-1.1c0-0.4,0.1-0.9,0.1-1.5c0-2-0.6-5.5-3.6-5.5C167.6,21.8,166.9,24.4,166.9,25.7z"/>
	<path class="st1" d="M187.4,29.3c0,3.7-1.4,8.2-5,8.2c-3.6,0-5.1-4.5-5.1-8.2c0-3.7,1.4-8.1,5.1-8.1
		C186.1,21.2,187.4,25.8,187.4,29.3z M182.4,21.8c-2.8,0-3.6,3.9-3.6,7.6c0,3.6,0.7,7.6,3.6,7.6c2.7,0,3.5-4,3.5-7.6
		C185.9,25.7,185.2,21.8,182.4,21.8L182.4,21.8z"/>
	<path class="st1" d="M191.5,36.8c2.4-0.2,2.6-0.5,2.6-2.3V24.5c0-1.1-0.1-1.3-1.3-1.4l-1.1-0.1v-0.4c1.6-0.3,2.9-0.8,3.8-1.3v13.3
		c0,1.8,0.2,2.1,2.6,2.3v0.4h-6.5V36.8z"/>
	<path class="st1" d="M201.6,36.8c2.4-0.1,2.6-0.6,2.6-2.6V23.7c-0.1-2.1-0.2-2.5-2.4-2.6v-0.4h6.4c3.7,0,5.1,1.3,5.1,3.6
		c0,2.3-2.2,3.4-3.4,3.7v0.1c2.3,0.3,4.6,1.7,4.6,4.2c0,1.8-0.9,3.1-2.5,4c-1.3,0.7-3,0.9-5,0.9h-5.3V36.8z M207.4,27.9
		c2.9,0,4.2-1.2,4.2-3.3c0-1.2-0.4-3.3-4.3-3.3c-0.8,0-1.3,0-1.4,0.1c-0.2,0-0.3,0.1-0.3,0.6v6H207.4z M205.6,28.5v5.9
		c0,1.7,0.3,2.3,2.4,2.3c2.6,0,4.6-1,4.6-3.9s-2.1-4.2-5.2-4.2H205.6z"/>
	<path class="st1" d="M216.2,36.8c2.5-0.1,2.7-0.6,2.7-2.6V23.9c0-2.3-0.2-2.7-2.4-2.8v-0.4h11.4c0,0.9,0.1,2.5,0.2,4l-0.4,0.1
		c-0.6-2.7-1.1-3.5-4.2-3.5H221c-0.7,0-0.7,0.1-0.7,0.7v6.2h3.1c2.1,0,2.6-0.3,3-2h0.4v4.9h-0.4c-0.4-2-1-2.1-3-2.1h-3.1v5.1
		c0,2.5,1.1,2.5,3.3,2.5c1.6,0,3.2,0,4-1c0.4-0.5,1.1-1.4,1.5-2.6h0.4c-0.2,1-0.7,3.3-0.9,4.2h-12.3V36.8z"/>
	<path class="st1" d="M234.7,36.8c2.6-0.1,2.8-0.6,2.8-2.6V21.4h-1.6c-3.4,0-3.8,0.6-4.6,3.3h-0.4c0.2-1.6,0.2-3.1,0.3-4.6h0.4
		c0.2,0.3,0.4,0.5,0.6,0.6c0.2,0.1,0.5,0.1,0.8,0.1h10.6c0.7,0,0.9-0.1,1.2-0.6l0.4,0c-0.1,1.2,0.1,2.9,0.2,4.5l-0.4,0.1
		c-0.6-3-1.6-3.3-3.9-3.3h-2.3v12.9c0,2,0.2,2.4,2.9,2.6v0.4h-7.1V36.8z"/>
	<path class="st1" d="M257.7,36.8c1.5-0.2,2.1-0.4,2.1-1c0-0.7-0.8-2.7-1.8-5.2h-6.1c-0.3,0.5-1.6,4.1-1.6,4.9
		c0,0.9,0.7,1.1,2.2,1.3v0.4h-6v-0.4c1.8-0.4,2.2-0.6,3.2-3l5.7-13.4l0.3-0.1l1.8,4.9c1.2,3.3,2.4,6.6,3.4,9.1
		c0.8,1.9,1,2.2,2.8,2.5v0.4h-6V36.8z M255.2,22.8c-1.1,2.3-2.1,4.8-2.9,7.1h5.5L255.2,22.8L255.2,22.8z"/>
	<path class="st1" d="M269,27.7c0.6-0.3,1.1-0.4,1.7-0.4c2.7,0,4.5,2.2,4.5,4.7c0,3-2,5.5-5.1,5.5c-2.6,0-4.9-2.3-4.9-6.3
		c0-4.4,2.6-8.9,9.5-10.2l0.1,0.6c-0.9,0.2-1.9,0.4-2.8,0.9c-1.8,0.8-4.1,2.6-5,6.2L269,27.7z M266.9,29.3c-0.1,0.5-0.1,1.1-0.1,1.8
		c0,3.2,1.3,5.8,3.9,5.8c2.5,0,3.2-2.4,3.2-4.2c0-1.9-1.1-4.3-3.9-4.3C268.8,28.4,267.8,28.7,266.9,29.3z"/>
</g>
<text transform="matrix(1 0 0 1 83.5 61.5)" class="st1 st2 st3">基于FUTABA RIO架构</text>
<text transform="matrix(1 0 0 1 95 78.5)" class="st1 st2 st3">代号“理式冲击”</text>
<text transform="matrix(1 0 0 1 103 96.5)" class="st1 st2 st3">长期服务支持</text>
<text transform="matrix(1 0 0 1 177.8335 486)" class="st1 st2 st3">masiproj码肆计划</text>
<text transform="matrix(1 0 0 1 15.5129 485.9997)" class="st1 st2 st3">该项目已纳入：</text>
<g id="XMLID_430_">
	<path id="XMLID_431_" class="st1" d="M22,21.3h-1.3c-0.3,0-0.5,0.1-0.7,0.2c-0.2,0.1-0.3,0.3-0.4,0.6l-1.8,6.4
		c-0.1,0.2,0.1,0.4,0.3,0.4h2c0.9,0,1.9-0.3,2.7-0.9c0.9-0.6,1.5-1.5,1.9-2.9c0.4-1.3,0.3-2.2-0.1-2.8C24.2,21.6,23.3,21.3,22,21.3z
		"/>
	<path id="XMLID_434_" class="st1" d="M28.7,17.2H10.3c-1.4,0-2.5,1.1-2.5,2.5V38c0,1.4,1.1,2.5,2.5,2.5h18.4c1.4,0,2.5-1.1,2.5-2.5
		V19.7C31.2,18.3,30.1,17.2,28.7,17.2z M26.4,24.9c-0.4,1.5-1.2,2.6-2.3,3.3c-1.1,0.8-2.3,1.1-3.6,1.1h-2.7c-0.1,0-0.2,0.1-0.3,0.2
		l-1.7,6c-0.1,0.3,0,0.4,0.1,0.6c0.1,0.1,0.3,0.2,0.6,0.2h8.5c0.9,0,2,0.8,0.9,0.8H12.8c-0.4,0-0.3-0.5-0.3-0.5
		c0-0.1,0.1-0.3,0.3-0.3h0.4c0.3,0,0.6-0.1,0.7-0.2c0.2-0.1,0.3-0.3,0.3-0.6l3.8-13.5c0.1-0.3,0.1-0.4,0-0.6
		c-0.1-0.1-0.3-0.2-0.6-0.2h-0.2c-0.2,0-0.3-0.2-0.3-0.4c0-0.1,0.1-0.2,0.3-0.2h5.4c1.6,0,2.7,0.4,3.3,1.2
		C26.6,22.7,26.7,23.7,26.4,24.9z"/>
</g>
<rect y="107.7" class="st1" width="288" height="1.7"/>
<g>
	<g>
		<path class="st0" d="M270.1,328.1L270.1,328.1L270.1,328.1c0,0.2,0.1,0.3,0.1,0.5C270.2,328.4,270.1,328.3,270.1,328.1
			C270.1,328.1,270.1,328.1,270.1,328.1z"/>
		<path class="st0" d="M234.4,207.2L234.4,207.2L234.4,207.2c0,0.1,0,0.2,0.1,0.4C234.4,207.4,234.4,207.2,234.4,207.2
			C234.4,207.1,234.3,207.2,234.4,207.2z"/>
		<path class="st0" d="M283.3,446.6c-1.8-6.4-2.4-13.1-4.6-19.4c-4-11.5-8.9-22.6-13.3-34c-1.7-4.3-1.3-8.5,1.1-12.6
			c7-12.1,9.3-25.2,6.9-38.9c-0.7-4.4-2.1-8.7-3.2-13c0.7,4.9,1.7,9.9,2.1,14.8c0.9,11.6,1.1,23.3-5.7,33.3
			c-3.7,5.4-4.8,10.5-2.7,16.2c4,11.2,8.4,22.3,12.8,33.3c2.4,6,4.8,12,4.1,18.7c-3.6-5.6-10.8-8.9-10.5-17c0-1-1-2.2-1.9-3
			c-7.2-7-11.3-14.9-9.3-25.3c0.2-1.1-0.2-2.4-0.5-3.6c-1.8-5.9-4.6-11.7-5.2-17.7c-1.8-16.4-2.7-33-3.8-49.5
			c-0.5-7.8-0.7-15.6-0.5-23.4c0.2-7.5,1-15,1.5-22.5c0.4-5.8,0.2-11.7,1-17.4c1.1-7.6-0.6-14.2-5.3-20.2c-1.1-1.4-2.4-2.9-2.9-4.6
			c-1.8-5.7-3.4-11.4-5-17.2c-1.4-5.4-2.6-10.8-3.9-16.2c0,1.6,0,3.3,0,5.5c-1.7-3-3.1-5.2-4.3-7.5c-4.4-8.4-8-17.3-13.1-25.2
			c-4.8-7.4-7.9-15.9-15.2-21.8c-5.4-4.4-10.3-9.7-14.9-15c-4.6-5.3-10.6-8.2-16.6-11.1c-5.5-2.6-11.2-4.9-17.1-6.4
			c-11.6-2.9-22.2,3.9-33.6,4.7c-6.1,0.4-11.7,5.7-17.9,6.6c-6.5,0.9-9.3,5.2-12.5,9.2c-6.5,8-12.6,16.3-18.1,24.9
			c-4.8,7.5-8.7,15.5-12.8,23.1c0.8-13.6,8.6-24.3,16.2-35c8-11.4,18.3-20.5,29.5-28.7l0,0l0,0c-0.1-0.1-0.2-0.2-0.3-0.3
			c-2.4,1.5-5.1,2.8-7.3,4.5C65.8,159,50,191.7,43,229.3c0.8-1.7,1.7-3.5,2.5-5.2c0.5,0.1,0.9,0.2,1.4,0.3
			c-1.1,5.4-2.2,10.8-3.4,16.2c-1,4.3-2.4,8.5-3,12.8c-0.6,4.4-1.5,8.4-7,11.2c1.9-7,3.7-13.4,5.4-19.7c1.4-5.3,2.8-10.5,4.2-15.8
			c-3.8,11.5-7.6,23-11.2,34.6c-2.1,7-0.2,13,5.5,17.7c2.1,1.8,4.7,3.3,6.1,5.5c1.6,2.5,3,5.8,2.7,8.6c-0.4,4-2.1,7.9-3.8,11.6
			c-5.2,11.4-11,22.5-16.1,34c-3,6.8-5.7,13.9-4.9,21.7c0.9,8.8,5.4,15.7,11.1,22.2c1.7,1.9,3.7,5.9,2.8,7.3
			c-5.6,9.4-12.3,18-24.2,20c-3.7,0.6-7.5,1-11.2,1.4c0,0.5,0,1.1-0.1,1.6c6.1,0.6,12.2,1.2,18.3,1.8c1.4,0.1,2.9,0.4,4.3,0.7
			c0.2,0.4,0.4,0.9,0.6,1.3c-13,12.6-22.9,26.6-22.5,45.5c1.5,0,3.1,0,4.6,0c2.9-7.5,5.7-15,8.8-22.4c4.1-9.8,8.2-19.6,12.7-29.2
			c1.3-2.8,3.8-5,5.8-7.5c1.8-5.4,6.8-7,11.3-9.3c1.8-0.9,3.6-1.7,4.7-2.3c6.8,10.5,14.5,20.3,19.8,31.3c3.7,7.7,4,17.1,6.2,25.6
			c1.3,5.2,0.1,9.6-3,13.7c4.6,0,9.2,0,13.8,0c1-5,2.1-10.1,2.8-15.2c1.1-7.7,3.1-15.5,2.8-23.1c-0.5-15,2.5-29.5,5-44.2
			c0.1-0.3,0.2-0.6,0.2-0.9c-0.9-9.3,5.7-12.7,12.5-15.8c3.3-1.5,6.7-2.8,11.3-4.7c-8.2,9.4-4.3,19.3-3,28.1
			c2.3,15.4,5.8,30.6,10.2,45.5c2.7,8.9,8.1,17.1,12.2,25.6c0.7,1.5,1.4,3,2.1,4.6c4.6,0,9.2,0,13.8,0c-0.9-3.6-1.5-7.3-2.8-10.7
			c-1-2.7-0.7-4.4,2.5-5.4c4,5.3,8.1,10.7,12.2,16.2c0.9,0,1.8,0,2.8,0c-4.5-5.7-9.1-11.4-13.6-17.2c0.3-0.5,0.5-0.9,0.8-1.4
			c1.1,0.5,2.6,0.8,3.3,1.7c4.5,5.5,8.8,11.2,13.2,16.9c2.1,0,4.3,0,6.4,0c-0.5-0.9-0.8-2-1.5-2.7c-4.3-4.5-8.8-8.7-13-13.4
			c-4.1-4.5-7.7-9.4-11.7-14.3c1.6-2.4,3-4.3,4.2-6.1c6.6,2,13,3.8,19.4,5.8c1.2,0.4,2.6,1.5,3,2.7c3,9.3,5.8,18.6,8.7,28
			c5.8,0,11.7,0,17.5,0c-5.7-14.1-11.3-28.3-17.2-43.1c3.3-0.7,5.9-1.3,9.3-2.1c-1.8,2.5-3.1,4.4-4.5,6.3c0.2,0.2,0.4,0.4,0.7,0.5
			c1.9-2.2,3.8-4.5,6.1-7.2c1.1,6.2,1.5,11.8,3.1,17.1c2.3,7.7,5.4,15.1,8.1,22.7c0.6,1.8,0.7,3.8,1.1,5.7c2.8,0,5.5,0,8.3,0
			c0-4.4,0-8.8,0-13.2c0.6-0.1,1.3-0.1,1.9-0.2c0.6,4.5,1.2,8.9,1.8,13.4c4.9,0,9.8,0,14.7,0c-5.8-15.4-11.5-30.9-17.5-46.2
			c-1.1-2.9-1.2-5.1,0.4-7.7c3.8-5.7,7.4-11.6,11.5-18c17.2,20.8,34.5,41.7,52.1,62.9c-4.1,3.2-7.8,6.1-11.6,9c2.5,0,4.9,0,7.4,0
			c-1.2-4.8,3.5-5.8,5.5-8.2C286.3,453,284.3,449.9,283.3,446.6z M18,429.5c-4.6,10.6-9.2,21.1-14.4,32.8
			c-0.4-14.5,4.6-25.3,14.4-34C18.1,428.7,18.2,429.2,18,429.5z M8,414.7c3-0.8,5.9-1.3,8.5-2.3c2.8-1,5.5-2.4,8.2-3.7
			C23.6,415.6,18.5,417.5,8,414.7z M26.1,367.5c-2.9-6-2.5-11.8,1-19.5c-0.7,3.2-1.8,6.4-2,9.6C24.9,360.9,25.7,364.2,26.1,367.5z
			 M39.2,379.5c-13.3-10.4-15-23.4-5-36.4c2.2-2.9,4.3-5.8,6.4-8.7c0.3,0.2,0.7,0.3,1,0.5C36.6,349.5,35.3,364.3,39.2,379.5z
			 M48,283.6c-7.9-5.2-9.1-8.2-6.4-16c1.4-4,3.3-7.7,5-11.6c0.5,0.1,0.9,0.2,1.4,0.3C48,265.3,48,274.2,48,283.6z M48.7,222.1
			c-0.4-0.1-0.8-0.2-1.2-0.3c-0.5-9.2,4.3-17.2,7.4-25.3C52.9,205,50.8,213.5,48.7,222.1z M202.9,222.7c0,3.8,0,6.4,0,9.4
			c-1.3-0.3-2.7-0.6-4.6-1.1C199.9,228.2,201.1,226,202.9,222.7z M195.7,234.8c1.1-1.6,4.4-1.6,6.8-2.3c0.6,0.5,1.1,1,1.7,1.5
			c-1.5,6.2-2.9,12.5-4.5,18.7c-0.2,0.9-2.1,2-3,1.8c-9.1-1.8-16.7,2-24.1,6.5c-0.5,0.3-1,0.7-1.6,0.9c-0.3,0.1-0.6,0.1-2,0.3
			c1.8-2.2,2.9-4.1,4.5-5.3C182,250.7,189.5,243.5,195.7,234.8z M192.2,277.7c-0.6,3.2-1.1,6.6-2.7,9.5c-1.6,3-4.9,4.3-8.4,3.2
			c-3.7-1.2-7.2-3.6-6.8-7.6c0.2-2.6,3.1-5,5.1-7.8c2.4,3.1,4.2,7.9,6.6,1.2c0.3-0.8,3-1,4.5-0.9
			C191.2,275.2,192.4,276.9,192.2,277.7z M111.2,244.1c3.8,7.9,6.5,16.6,14.1,22.8c-1.1-0.3-2.6-0.2-3.4-0.9
			c-7.9-7.5-17.5-9.5-29-8.4C99.5,252.7,105.2,248.5,111.2,244.1z M90.8,398.7c-0.4,0-0.9,0-1.3,0c0-8,0-15.9,0-24.4
			c1.9,0.7,3.3,1.1,4.8,1.7C93.2,383.7,92,391.2,90.8,398.7z M141.7,447.4c-0.5,0.8-3.1,1.2-3.7,0.6c-2.5-2.4-5.3-4.8-6.6-7.8
			c-6.4-14.9-9.3-30.7-11.8-46.6c-0.8-5.1-1.2-10.4-1.5-15.5c-0.5-12.1-0.3-12.4,10-21c-1.4,6.7,2.6,10.9,6.1,15.3
			c8.8,10.6,18.7,19.9,31.2,26.1c3.1,1.5,6.4,2.7,9.7,4.2c-4.6-0.4-5.6,3-7.5,5.9C159.2,421.6,150.5,434.5,141.7,447.4z
			 M184.4,374.9c-1.1,6.3-2,11.7-3,17.2c-0.4-0.1-0.8-0.1-1.2-0.2C182.9,386.7,177.2,380.2,184.4,374.9z M186.1,357.9
			c-0.1-1.7-0.3-3.3-0.5-6c3.7,3.6,6.6,6.3,6.6,11.4c-0.1,15.1,3.3,29.8,7.8,44.1c0.5,1.7,0.9,3.5,1.7,6.3
			c-6.2-5.5-11.6-10.4-17.3-15.5c-1.1,1.5-2.3,2.7-2.9,4.2c-3.3,7.3-3.2,7.3-10.9,4.7c1.8-0.3,3.5-0.7,5.9-1.2
			c0-0.2-0.2-1.2,0.2-1.6C189,390.8,186.9,374.2,186.1,357.9z M170.5,367c-6.7,8.9-12.3,9.8-22.3,5.3c-1.2-0.6-2.6-1.3-3.9-1.3
			c-3.4,0-5.6-1.6-7.5-4.4c-1.1-1.6-3.2-2.4-5.9-4.4c0-0.8,0-2.9,0-5.7c3.3,2.2,6.3,4,9,6.1c2.6,2,5,2.2,8,0.8
			c10.8-5.2,21.8-10.2,32.6-15.3C180.4,355.6,174.9,361.2,170.5,367z M159.4,426.6c2.5-3.6,4.5-6.4,6.8-9.7c1.4,2.2,2.4,3.8,3.5,5.4
			c1.3-0.7,2.5-1.3,3.7-2c2.1,4.2,4,8.1,6.3,12.8C172.7,430.9,166.3,428.8,159.4,426.6z M170.1,418.7c-0.1-0.2-0.3-0.4-0.4-0.7
			c1.9-1.2,3.7-2.8,5.7-3.6c3.6-1.5,7.4-2.8,11.2-3.8c1-0.3,2.4,0.6,4.1,1.2C183.1,414.3,176.6,416.5,170.1,418.7z M190,420.1
			c-0.8-1.6-1.5-2.9-2.5-4.8c3.6-0.4,6.3-1.6,3-6.5c0.6,0,1.2,0,1.8,0c3.1,2.6,6.1,5.3,9.9,8.5C197.6,418.4,193.9,419.3,190,420.1z
			 M209.1,300.7c0.1,4.5-2.3,6.2-5.8,7.6c-10.7,4-21.7,3.9-32.6,1.3c-4.7-1.1-9.2-3.2-13.8-5c-1.4-0.6-2.6-1.7-3.6-2.7
			c-5.4-5.4-5.3-8.5,1-12.7c4.8-3.3,10.1-5.9,14.8-9.6c-4.5,2-9.4,3.6-13.6,6.1c-4,2.4-7.5,5.9-10.4,8.4c1.4,1.7,2.7,3.4,4.2,4.9
			c3.2,2.9,6.2,6.7,10,8.4c15.9,6.9,32.3,7.6,50.1,0.4c-1.7,4.3-2.5,7.8-4.4,10.7c-13.6,21.5-33.8,34.2-57.4,42
			c-2.3,0.8-5.7,0.3-7.7-1c-10.9-6.8-21.6-13.9-32.3-21.2c-9.8-6.7-14-17.1-16.7-27c8.7-1.4,17.6-2.4,26.4-4.3
			c5.8-1.2,10.6-4.4,13.7-10c0.7-1.3,3-1.8,4.1-2.5c-1.2-1.4-2.4-3.2-3.9-4.5c-4.1-3.5-8.3-6.8-12.5-10.1c-0.3,0.3-0.5,0.7-0.8,1
			c3.4,3,6.9,5.9,10.3,9c2.7,2.4,3.3,5.5,0.6,8c-3.2,2.9-6.7,5.9-10.6,7.5c-8.2,3.4-17,3.9-25.7,2.5c-1.4-0.2-3.3-1.4-3.8-2.6
			c-2.7-6.7-5.1-13.5-7.3-20.3c-0.6-1.8-0.1-4-0.1-6.1c0.5-0.2,1-0.4,1.5-0.5c2.4,2.7,4.9,5.4,7.3,8.2c-2.7-6.4-5.7-12.6,0.7-18.8
			c0.2,4.3,0.5,8.3,0.7,12.3c0.3,0.1,0.7,0.1,1,0.2c1.1-1.6,2.2-3.1,2.7-3.9c2-0.3,3.2-0.5,4.5-0.6c3.5-0.3,7-0.6,10.5-0.7
			c0.7,0,2,1,1.9,1.5c-0.2,4.2,0.2,8.6-1.1,12.4c-0.9,2.8-4.1,5.1-7.9,3.7c-3.6-1.4-6-6.4-5.2-10.6c-1.4-0.3-2.7-0.6-4.1-0.9
			c-1.3,8.3,5.2,11.6,10.6,14.7c3.4,2,7.4-0.8,11.5-3.5c-1.9-0.6-2.9-1-3-1c1.3-6.4,2.5-12.8,3.8-19.5c3.1,1.8,6.5,3.9,9.9,5.9
			c0.3-0.3,0.6-0.5,0.9-0.8c-1.2-2.2-2.3-4.3-3.7-6.8c1.4-1.3,3-2.6,5.2-4.6c-2.7-2.8-5.7-5.5-8.2-8.6c-1.2-1.6-1.7-3.8-2.3-5.8
			c-1-3.7-1.8-7.4-2.9-12.1c2.6,1.2,4.4,2,6.2,2.8c0.2-0.2,0.4-0.5,0.6-0.7c-1.5-1.4-3-2.9-3.7-3.5c8.3-14.2,16.5-28.3,24.8-42.5
			c7.3,28.2,7.1,55.9-6,82.8c0.3,0.3,0.6,0.5,0.9,0.8c3-4,6-8,9.1-11.9c3.6-4.5,6.6-9.8,10.9-13.3c7.6-6.2,15.5-11.9,20.3-20.9
			c0.4,0.2,0.8,0.4,1.1,0.7c-2,5.6-4.4,11.1-6,16.8c-2,6.8-8.7,7.4-13.1,10.8c0.2,1.3,0.3,2.5,0.5,3.4c1.3-0.2,2.7-0.5,4.1-0.7
			c0.1,0.4,0.2,0.8,0.3,1.1c-1.7,1.3-3.5,2.6-5.2,3.9c0.1,0.2,0.2,0.3,0.3,0.5c1.5-0.7,2.9-1.3,5.1-2.4c-1.3,2.8-2.3,5-3.3,7.2
			c0.2,0.3,0.5,0.6,0.7,0.9c2.8-2,5.6-4,8.8-6.3c-0.1,1.5-0.2,2.7-0.3,4.8c1.2-1.6,1.8-2.4,2.5-3.3c3.7,6.1,3.3,7.3-2.4,7.8
			c-0.9,4.6-0.1,8.7,3.3,12.2c5.8,6,12.7,5,16.7-2.4c3.1-5.8,3.1-12,2.6-18.4c-0.1-1.7,0.4-3.4,0.6-5.1c1.8,0.4,3.9,0.3,5.5,1.2
			c4.8,2.7,6.2,8.2,4.3,13.5c-0.6,1.7,0.1,3.9-0.1,5.8c-0.2,2.2-0.7,4.3-0.4,6.7c1.7-2.4,3.4-4.9,5.4-7.7
			C209.7,289.7,208.9,295.2,209.1,300.7z M223.1,432.7c-5.2-2.6-5.8-5.8-3.4-10.1C220.7,425.8,221.8,428.8,223.1,432.7z M242,245
			c1.9,1.7,4.4,3,5.7,5.1c3.8,6.3,5,12.9,1.1,19.9c-2.5,4.5-4.6,9.3-6.8,14c-0.3,0-0.6-0.1-1-0.1c0.3-7.1,0.6-14.2,0.9-21.3
			c0-0.6-0.2-1.2-0.4-1.8c-0.5-2.5-0.5-4.6,2.9-5c-0.6-0.1-1.1-0.2-2.2-0.4c1.1-1.5,2.1-2.9,3.9-5.3c-2.3,1-3.4,1.5-5.4,2.3
			C241.2,249.6,241.6,247.3,242,245z M268.1,430.8c-4.5-5.6-9.3-11-13.4-16.8c-1.6-2.3-1.5-5.7-2.2-8.7c0.2,2.2,0.5,4.4,0.8,7.8
			c-6.8-8.1-12.8-15.2-19-22.6c1.9-2,3.6-3.8,5.6-6c4.6,3,9.1,5.6,9.8,11.7c1.1,0.9,2.8,1.6,3.3,2.8c2,4.9,3.8,9.9,5.5,15
			c1.6,4.7,3.9,8.8,8.1,11.8c1.2,0.9,1.8,2.7,2.6,4.1C268.9,430.2,268.5,430.5,268.1,430.8z"/>
		<path class="st0" d="M44.9,416.3c3.2,5.5,2.8,11.6,3.3,17.6c0.8,10.3,2.1,20.5,3.1,30.8c0.6,0,1.2,0,1.8,0
			c-1.3-11.2-2.6-22.4-3.8-33.6C48.8,425.9,49.5,420.3,44.9,416.3z"/>
		<path class="st0" d="M270,322.2c-1.9-11.5-4-22.8-2.6-34.6c2.5-21.1,4.7-42.3,1.3-63.6c-0.6-3.9-1.2-7.9-2-11.8
			c-0.8-3.6-1.8-7.2-2.8-10.8c6.6,28.9,5.7,57.8,0.7,86.9c-1.2-12.4-2.5-24.7-3.7-37.1c-0.1,8.3,0,16.6,1.1,24.7
			c2.4,17.3,5.4,34.6,8.1,51.9C270.1,326,270.3,324.1,270,322.2z"/>
		<path class="st0" d="M270.1,328.1L270.1,328.1c0-0.1,0-0.1,0-0.2C270.1,328,270.1,328.1,270.1,328.1L270.1,328.1L270.1,328.1z"/>
		<path class="st0" d="M269.2,342.9c-3.4-7.9-7.1-15.6-11.1-24.5c-0.3,20.5-3.7,39.9,1.5,59.4C269.4,371.5,274.1,354.4,269.2,342.9z
			 M259.7,330c12,12.3,12.8,35,1.4,44.4C255.8,359.7,258.2,345,259.7,330z"/>
		<path class="st0" d="M160.8,116.8c-20.6-2.3-39.5,2.4-57,13.4c0.1,0.1,0.2,0.2,0.3,0.3C121.8,121,140.5,115.6,160.8,116.8z"/>
		<path class="st0" d="M227.4,179.1c2.2,8.9,4.5,17.8,6.7,26.8c-1.6-9.1-3.2-18.1-4.8-27.1C228.7,178.9,228,179,227.4,179.1z"/>
		<path class="st0" d="M234.1,205.9c0.1,0.4,0.2,0.9,0.2,1.3l0.1-0.1C234.3,206.7,234.2,206.3,234.1,205.9z"/>
		<path class="st0" d="M227.3,138.7c-5.2-3.8-10.3-7.6-15.5-11.4c-0.2,0.3-0.3,0.6-0.5,0.9c5.1,3.8,10.3,7.5,15.4,11.3
			C226.9,139.2,227.1,139,227.3,138.7z"/>
	</g>
	<g>
		<path id="XMLID_60_" class="st0" d="M144.4,435.1l-3.5-0.5c-0.2,0-0.4,0-0.5,0.2l-5,6.3c-0.2,0.3-0.1,0.7,0.2,0.9
			c1.2,0.5,2.5,0.6,3.9,0.4c0.1,0,0.3-0.1,0.4-0.2l4.9-6.2C145,435.7,144.8,435.2,144.4,435.1z"/>
		<path id="XMLID_59_" class="st0" d="M146.1,433.2c-0.1-0.5-0.2-1-0.4-1.5c-0.3-0.7-0.6-1.3-1.1-1.9c-0.1-0.1-0.3-0.2-0.4-0.2
			l-10.2-1.5l1.8,4.5l9.6,1.4C145.8,434,146.2,433.6,146.1,433.2z"/>
		<path id="XMLID_58_" class="st0" d="M135,439.5l2.2-2.8c0.1-0.2,0.2-0.4,0.1-0.5c-0.5-1.2-3.2-8.1-3.2-8.1
			c-0.2,0.1-0.4,0.3-0.6,0.4l0,0c-1,0.8-1.8,1.9-2.3,3.1c-0.1,0.1-0.1,0.3,0,0.4l2.9,7.3C134.2,439.8,134.7,439.8,135,439.5z"/>
	</g>
</g>
</svg>
