<?xml version="1.0" encoding="utf-8"?>
<!-- Generator: Adobe Illustrator 23.0.5, SVG Export Plug-In . SVG Version: 6.00 Build 0)  -->
<svg version="1.1" id="图层_1" xmlns="http://www.w3.org/2000/svg" xmlns:xlink="http://www.w3.org/1999/xlink" x="0px" y="0px"
	 viewBox="0 0 12 12" style="enable-background:new 0 0 12 12;" xml:space="preserve">
<g>
	<path d="M11.6,6.5h-0.49c-0.22,0-0.4,0.18-0.4,0.4v3.81H1.29V6.9c0-0.22-0.18-0.4-0.4-0.4H0.4C0.18,6.5,0,6.68,0,6.9v4.7
		C0,11.82,0.18,12,0.4,12h0.24h0.24h10.23h0.24h0.24c0.22,0,0.4-0.18,0.4-0.4V6.9C12,6.68,11.82,6.5,11.6,6.5z"/>
</g>
<g>
	<path d="M9.15,9.43H2.87c-0.17,0-0.3-0.13-0.3-0.3V8.44c0-0.17,0.13-0.3,0.3-0.3h6.27c0.17,0,0.3,0.13,0.3,0.3v0.69
		C9.45,9.3,9.31,9.43,9.15,9.43z"/>
</g>
<g>
	<path d="M9,6.25L2.8,7.21C2.63,7.24,2.48,7.13,2.46,6.96l-0.1-0.68C2.33,6.12,2.44,5.97,2.6,5.94l6.2-0.96
		c0.16-0.03,0.32,0.09,0.34,0.25l0.1,0.68C9.28,6.07,9.16,6.23,9,6.25z"/>
</g>
<g>
	<path d="M8.3,2.91L2.34,4.87C2.19,4.92,2.02,4.84,1.97,4.68L1.75,4.03C1.7,3.87,1.79,3.7,1.94,3.65L7.9,1.69
		c0.16-0.05,0.33,0.03,0.38,0.19L8.5,2.53C8.55,2.69,8.46,2.86,8.3,2.91z"/>
</g>
</svg>
