<?xml version="1.0" encoding="utf-8"?>
<!-- Generator: Adobe Illustrator 24.0.0, SVG Export Plug-In . SVG Version: 6.00 Build 0)  -->
<svg version="1.1" id="图层_1" xmlns="http://www.w3.org/2000/svg" xmlns:xlink="http://www.w3.org/1999/xlink" x="0px" y="0px"
	 viewBox="0 0 12 12" style="enable-background:new 0 0 12 12;" xml:space="preserve">
<path d="M11.5,4.19h-1.31V1.65c0-0.22-0.18-0.4-0.4-0.4H9.55H9.3H6.62h-1H2.99H2.75H2.5c-0.22,0-0.4,0.18-0.4,0.4v2.54H0.5
	C0.22,4.19,0,4.41,0,4.69v6.8c0,0.28,0.22,0.5,0.5,0.5h11c0.28,0,0.5-0.22,0.5-0.5v-6.8C12,4.41,11.78,4.19,11.5,4.19z M3.39,2.54
	h2.23h1H8.9v1.65H3.39V2.54z M9.01,6.86L5.87,9.99l-0.29,0.29c-0.13,0.13-0.34,0.13-0.47,0L4.83,9.99L3.28,8.45
	c-0.13-0.13-0.13-0.34,0-0.47l0.29-0.29c0.13-0.13,0.34-0.13,0.47,0L5.35,9l2.9-2.9c0.13-0.13,0.34-0.13,0.47,0l0.29,0.29
	C9.14,6.52,9.14,6.73,9.01,6.86z"/>
</svg>
