<?xml version="1.0" encoding="utf-8"?>
<!-- Generator: Adobe Illustrator 23.0.5, SVG Export Plug-In . SVG Version: 6.00 Build 0)  -->
<svg version="1.1" id="图层_1" xmlns="http://www.w3.org/2000/svg" xmlns:xlink="http://www.w3.org/1999/xlink" x="0px" y="0px"
	 viewBox="0 0 12 12" style="enable-background:new 0 0 12 12;" xml:space="preserve">
<path d="M6.43,7.2C6,7.39,6,7.39,5.62,7.22L0,4.5V7.5v0.11v0.61v1.14c0,0.31,0.25,0.55,0.55,0.55h10.89c0.31,0,0.55-0.25,0.55-0.55
	V8.22V7.61V7.5V4.5L6.43,7.2z"/>
<path d="M11.72,3.99L12,3.86V2.64c0-0.31-0.25-0.55-0.55-0.55H0.55C0.25,2.08,0,2.33,0,2.64v1.22l0.14,0.07l5.6,2.7
	C6,6.74,6,6.74,6.25,6.64L11.72,3.99L11.72,3.99z"/>
</svg>
