<?xml version="1.0" encoding="utf-8"?>
<!-- Generator: Adobe Illustrator 23.0.5, SVG Export Plug-In . SVG Version: 6.00 Build 0)  -->
<svg version="1.1" id="图层_1" xmlns="http://www.w3.org/2000/svg" xmlns:xlink="http://www.w3.org/1999/xlink" x="0px" y="0px"
	 viewBox="0 0 12 12" style="enable-background:new 0 0 12 12;" xml:space="preserve">
<path d="M11.52,6.54L8.95,3.96L6.88,1.89c-0.3-0.3-0.72-0.48-1.15-0.48h-2.7c-0.43,0-0.84,0.17-1.15,0.48
	c-0.3,0.3-0.48,0.72-0.48,1.15v2.7c0,0.43,0.17,0.84,0.48,1.15l2.07,2.07l2.57,2.57c0.63,0.63,1.66,0.63,2.29,0l2.7-2.7
	C12.16,8.2,12.16,7.17,11.52,6.54z M4.42,5.33c-0.5,0-0.9-0.4-0.9-0.9s0.4-0.9,0.9-0.9s0.9,0.4,0.9,0.9S4.92,5.33,4.42,5.33z"/>
</svg>
