<?xml version="1.0" encoding="utf-8"?>
<!-- Generator: Adobe Illustrator 23.0.5, SVG Export Plug-In . SVG Version: 6.00 Build 0)  -->
<svg version="1.1" id="图层_1" xmlns="http://www.w3.org/2000/svg" xmlns:xlink="http://www.w3.org/1999/xlink" x="0px" y="0px"
	 viewBox="0 0 12 12" style="enable-background:new 0 0 12 12;" xml:space="preserve">
<style type="text/css">
	.st0{fill-rule:evenodd;clip-rule:evenodd;}
</style>
<g>
	<path class="st0" d="M3.19,5.29L2.29,4.38c-0.55-0.55-0.55-1.45,0-2.01l0.1-0.1c0.55-0.55,1.45-0.55,2.01,0L6.41,4.3
		c0.55,0.55,0.55,1.45,0,2.01L6.36,6.35c-0.22,0.22-0.22,0.59,0,0.81c0.22,0.22,0.59,0.22,0.81,0c1.03-1.03,1.03-2.7,0-3.73
		L5.25,1.52c-1.03-1.03-2.7-1.03-3.73,0s-1.03,2.7,0,3.73L2.38,6.1c0.22,0.22,0.59,0.22,0.81,0C3.42,5.88,3.42,5.51,3.19,5.29z"/>
	<path class="st0" d="M10.48,6.76L9.62,5.9c-0.22-0.22-0.59-0.22-0.81,0c-0.22,0.22-0.22,0.59,0,0.81l0.91,0.91
		c0.55,0.55,0.55,1.45,0,2.01l-0.1,0.1c-0.55,0.55-1.45,0.55-2.01,0L5.59,7.7c-0.55-0.55-0.55-1.45,0-2.01l0.05-0.05
		c0.22-0.22,0.22-0.59,0-0.81c-0.22-0.22-0.59-0.22-0.81,0c-1.03,1.03-1.03,2.7,0,3.73l1.92,1.92c1.03,1.03,2.7,1.03,3.73,0
		S11.51,7.79,10.48,6.76z"/>
</g>
</svg>
