<?xml version="1.0" encoding="utf-8"?>
<!-- Generator: Adobe Illustrator 23.0.5, SVG Export Plug-In . SVG Version: 6.00 Build 0)  -->
<svg version="1.1" id="图层_1" xmlns="http://www.w3.org/2000/svg" xmlns:xlink="http://www.w3.org/1999/xlink" x="0px" y="0px"
	 viewBox="0 0 12 12" enable-background="new 0 0 12 12" xml:space="preserve">
<path d="M11.5,4.2h-1.31V1.66c0-0.22-0.18-0.4-0.4-0.4H9.55H9.3H6.62h-1H2.99H2.75H2.5c-0.22,0-0.4,0.18-0.4,0.4V4.2H0.5
	C0.22,4.2,0,4.42,0,4.7v6.8C0,11.78,0.22,12,0.5,12h11c0.28,0,0.5-0.22,0.5-0.5V4.7C12,4.42,11.78,4.2,11.5,4.2z M6.55,8.6v1.81
	c0,0.13-0.11,0.24-0.24,0.24H5.69c-0.13,0-0.24-0.11-0.24-0.24V8.6C5.08,8.4,4.82,8.02,4.82,7.57c0-0.65,0.53-1.18,1.18-1.18
	s1.18,0.53,1.18,1.18C7.18,8.02,6.92,8.4,6.55,8.6z M8.9,4.2H3.39V2.55h2.23h1H8.9V4.2z"/>
</svg>
