<?xml version="1.0" encoding="utf-8"?>
<!-- Generator: Adobe Illustrator 24.0.0, SVG Export Plug-In . SVG Version: 6.00 Build 0)  -->
<svg version="1.1" id="图层_1" xmlns="http://www.w3.org/2000/svg" xmlns:xlink="http://www.w3.org/1999/xlink" x="0px" y="0px"
	 viewBox="0 0 12 12" style="enable-background:new 0 0 12 12;" xml:space="preserve">
<path d="M10.4,3.3H1.6C1.4,3.3,1.3,3.2,1.3,3V2.7c0-0.2,0.1-0.3,0.3-0.3h8.8c0.2,0,0.3,0.1,0.3,0.3V3C10.7,3.2,10.6,3.3,10.4,3.3z"
	/>
<path d="M10.4,6.4H1.6c-0.2,0-0.3-0.1-0.3-0.3V5.8c0-0.2,0.1-0.3,0.3-0.3h8.8c0.2,0,0.3,0.1,0.3,0.3v0.3C10.7,6.3,10.6,6.4,10.4,6.4
	z"/>
<path d="M10.4,9.5H1.6c-0.2,0-0.3-0.1-0.3-0.3V8.9c0-0.2,0.1-0.3,0.3-0.3h8.8c0.2,0,0.3,0.1,0.3,0.3v0.3C10.7,9.4,10.6,9.5,10.4,9.5
	z"/>
</svg>
