<?xml version="1.0" encoding="utf-8"?>
<!-- Generator: Adobe Illustrator 24.0.0, SVG Export Plug-In . SVG Version: 6.00 Build 0)  -->
<svg version="1.1" id="图层_1" xmlns="http://www.w3.org/2000/svg" xmlns:xlink="http://www.w3.org/1999/xlink" x="0px" y="0px"
	 viewBox="0 0 12 12" style="enable-background:new 0 0 12 12;" xml:space="preserve">
<path d="M9.01,4.44V4.28c0.02-0.02,0.06-0.06,0.12-0.13c0.37-0.44,0.59-1,0.59-1.62C9.72,1.13,8.59,0,7.2,0
	C5.81,0,4.68,1.13,4.68,2.52c0,0.3,0.05,0.59,0.15,0.85c-0.01,0-0.02,0-0.03,0c-1.39,0-2.52,1.13-2.52,2.52
	c0,0.62,0.22,1.18,0.59,1.62c0.06,0.07,0.1,0.11,0.12,0.14v0.16L0,9.77v1.74C0,11.78,0.22,12,0.5,12C0.77,12,1,11.78,1,11.5v-0.94h0
	c0,0,0,0,0,0c0,0,0-0.01,0-0.01c0-0.16,0.07-0.3,0.22-0.4l2.76-1.8V7.28C3.5,6.99,3.19,6.48,3.19,5.9c0-0.89,0.72-1.61,1.61-1.61
	c0.89,0,1.61,0.72,1.61,1.61c0,0.58-0.31,1.1-0.78,1.38v1.07l1.95,1.27c0.08,0.06,0.19,0.08,0.29,0.08c0.26,0,0.47-0.21,0.47-0.47
	c0-0.16-0.06-0.31-0.18-0.4L6.61,7.81V7.65c0.02-0.02,0.06-0.06,0.12-0.14c0.37-0.44,0.59-1,0.59-1.62c0-0.67-0.27-1.28-0.69-1.73
	C6.58,4.11,6.35,3.91,6.19,3.77c-0.05-0.04-0.1-0.08-0.14-0.13c0,0,0,0,0,0c0,0,0,0,0,0C5.76,3.35,5.59,2.96,5.59,2.52
	c0-0.89,0.72-1.61,1.61-1.61c0.89,0,1.61,0.72,1.61,1.61c0,0.59-0.31,1.1-0.78,1.38v1.07l2.76,1.8C10.93,6.87,11,7.02,11,7.17v4.33
	c0,0.28,0.22,0.5,0.5,0.5c0.28,0,0.5-0.22,0.5-0.5V6.39L9.01,4.44z"/>
</svg>
