<?xml version="1.0" encoding="utf-8"?>
<!-- Generator: Adobe Illustrator 24.0.0, SVG Export Plug-In . SVG Version: 6.00 Build 0)  -->
<svg version="1.1" id="图层_1" xmlns="http://www.w3.org/2000/svg" xmlns:xlink="http://www.w3.org/1999/xlink" x="0px" y="0px"
	 viewBox="0 0 12 12" style="enable-background:new 0 0 12 12;" xml:space="preserve">
<g>
	<path d="M6,1.4c0.4,0,0.7-0.3,0.7-0.7C6.7,0.3,6.4,0,6,0C5.8,0,5.6,0,5.4,0C4,0.2,2.7,0.8,1.8,1.8C0.7,2.8,0,4.3,0,6
		c0,1.5,0.5,2.9,1.4,3.9L2.9,6H1.4C1.4,3.5,3.5,1.4,6,1.4z"/>
	<path d="M10.6,2.1L9.1,6h1.4c0,2.5-2,4.6-4.6,4.6c-0.4,0-0.7,0.3-0.7,0.7C5.3,11.7,5.6,12,6,12c3.3,0,6-2.7,6-6
		C12,4.5,11.5,3.1,10.6,2.1z"/>
</g>
</svg>
