<?xml version="1.0" encoding="utf-8"?>
<!-- Generator: Adobe Illustrator 23.0.5, SVG Export Plug-In . SVG Version: 6.00 Build 0)  -->
<svg version="1.1" id="图层_1" xmlns="http://www.w3.org/2000/svg" xmlns:xlink="http://www.w3.org/1999/xlink" x="0px" y="0px"
	 viewBox="0 0 12 12" style="enable-background:new 0 0 12 12;" xml:space="preserve">
<path d="M12,6l-0.39-0.39l0,0l-0.29-0.29L7.17,1.17c-0.15-0.15-0.39-0.15-0.54,0L6.22,1.58c-0.15,0.15-0.15,0.39,0,0.54l3.19,3.19
	H0.49C0.22,5.32,0,5.53,0,5.8V6.2c0,0.27,0.22,0.49,0.49,0.49h8.92L6.22,9.87c-0.15,0.15-0.15,0.39,0,0.54l0.41,0.41
	c0.15,0.15,0.39,0.15,0.54,0l4.14-4.15l0,0l0.41-0.41c0,0,0,0,0,0L12,6z"/>
</svg>
