<?xml version="1.0" encoding="utf-8"?>
<!-- Generator: Adobe Illustrator 24.0.0, SVG Export Plug-In . SVG Version: 6.00 Build 0)  -->
<svg version="1.1" id="图层_1" xmlns="http://www.w3.org/2000/svg" xmlns:xlink="http://www.w3.org/1999/xlink" x="0px" y="0px"
	 viewBox="0 0 12 12" style="enable-background:new 0 0 12 12;" xml:space="preserve">
<path d="M2.4,5.8L1,3C0.8,2.7,1.1,2.4,1.4,2.4L4.5,3c0.1,0,0.3,0,0.4-0.1l2.2-2.2c0.2-0.2,0.7-0.1,0.7,0.2l0.4,3.1
	c0,0.1,0.1,0.3,0.2,0.3l2.8,1.4c0.3,0.2,0.3,0.6,0,0.7L8.4,7.8C8.3,7.8,8.2,7.9,8.2,8.1l-0.4,3.1c0,0.3-0.5,0.5-0.7,0.2L4.9,9.2
	C4.8,9.1,4.6,9,4.5,9L1.4,9.6C1.1,9.6,0.8,9.3,1,9l1.5-2.8C2.5,6.1,2.5,5.9,2.4,5.8z"/>
</svg>
