<?xml version="1.0" encoding="utf-8"?>
<!-- Generator: Adobe Illustrator 24.0.0, SVG Export Plug-In . SVG Version: 6.00 Build 0)  -->
<svg version="1.1" id="图层_1" xmlns="http://www.w3.org/2000/svg" xmlns:xlink="http://www.w3.org/1999/xlink" x="0px" y="0px"
	 viewBox="0 0 12 12" style="enable-background:new 0 0 12 12;" xml:space="preserve">
<g>
	<path d="M6,0C2.69,0,0,2.69,0,6s2.69,6,6,6s6-2.69,6-6S9.31,0,6,0z M6,10.71C3.4,10.71,1.29,8.6,1.29,6S3.4,1.29,6,1.29
		S10.71,3.4,10.71,6S8.6,10.71,6,10.71z"/>
	<path d="M9.54,5.52H6.48V2.46C6.48,2.2,6.26,1.99,6,1.99S5.52,2.2,5.52,2.46V6c0,0.26,0.21,0.48,0.48,0.48h3.54
		c0.26,0,0.48-0.21,0.48-0.48S9.8,5.52,9.54,5.52z"/>
</g>
</svg>
