<?xml version="1.0" encoding="utf-8"?>
<!-- Generator: Adobe Illustrator 23.0.5, SVG Export Plug-In . SVG Version: 6.00 Build 0)  -->
<svg version="1.1" id="图层_1" xmlns="http://www.w3.org/2000/svg" xmlns:xlink="http://www.w3.org/1999/xlink" x="0px" y="0px"
	 viewBox="0 0 12 12" enable-background="new 0 0 12 12" xml:space="preserve">
<path d="M6.34,10.56H5.66c-0.17,0-0.3-0.13-0.3-0.3V9.58c0-0.17,0.13-0.3,0.3-0.3h0.69c0.17,0,0.3,0.13,0.3,0.3v0.69
	C6.64,10.43,6.51,10.56,6.34,10.56z"/>
<g>
	<path d="M6.53,1.45c0,0-0.28-0.02-0.53-0.02S5.47,1.45,5.47,1.45c-0.17,0-0.3,0.14-0.29,0.31l0.18,6.27c0,0.17,0.14,0.3,0.31,0.29
		c0,0,0.18-0.01,0.33-0.01s0.33,0.01,0.33,0.01c0.17,0,0.3-0.13,0.31-0.29l0.18-6.27C6.83,1.59,6.7,1.46,6.53,1.45z"/>
</g>
</svg>
