<?xml version="1.0" encoding="utf-8"?>
<!-- Generator: Adobe Illustrator 24.0.0, SVG Export Plug-In . SVG Version: 6.00 Build 0)  -->
<svg version="1.1" id="图层_1" xmlns="http://www.w3.org/2000/svg" xmlns:xlink="http://www.w3.org/1999/xlink" x="0px" y="0px"
	 viewBox="0 0 12 12" style="enable-background:new 0 0 12 12;" xml:space="preserve">
<path d="M10.6,9.8L6.8,6l3.8-3.8c0.1-0.1,0.1-0.3,0-0.4l-0.4-0.4c-0.1-0.1-0.3-0.1-0.4,0L6,5.2L2.2,1.4c-0.1-0.1-0.3-0.1-0.4,0
	L1.4,1.8c-0.1,0.1-0.1,0.3,0,0.4L5.2,6L1.4,9.8c-0.1,0.1-0.1,0.3,0,0.4l0.4,0.4c0.1,0.1,0.3,0.1,0.4,0L6,6.8l3.8,3.8
	c0.1,0.1,0.3,0.1,0.4,0l0.4-0.4C10.7,10.1,10.7,9.9,10.6,9.8z"/>
</svg>
