<?xml version="1.0" encoding="utf-8"?>
<!-- Generator: Adobe Illustrator 19.0.0, SVG Export Plug-In . SVG Version: 6.00 Build 0)  -->
<svg version="1.1" id="图层_1" xmlns="http://www.w3.org/2000/svg" xmlns:xlink="http://www.w3.org/1999/xlink" x="0px" y="0px"
	 viewBox="0 0 214.2 50" style="enable-background:new 0 0 214.2 50;" xml:space="preserve">
<style type="text/css">
	.st0{fill:#2EA7E0;}
</style>
<g id="XMLID_430_">
	<path id="XMLID_431_" class="st0" d="M30.3,8.9h-2.8c-0.5,0-1,0.1-1.4,0.4c-0.4,0.3-0.7,0.7-0.8,1.2l-3.8,13.6
		c-0.1,0.4,0.2,0.8,0.6,0.8h4.3c2,0,4-0.6,5.9-1.8c1.9-1.2,3.3-3.3,4.1-6.3c0.8-2.7,0.7-4.7-0.3-6C35,9.5,33.1,8.9,30.3,8.9z"/>
	<path id="XMLID_434_" class="st0" d="M44.6,0H5.4C2.4,0,0,2.4,0,5.4v39.3c0,3,2.4,5.4,5.4,5.4h39.3c3,0,5.4-2.4,5.4-5.4V5.4
		C50,2.4,47.6,0,44.6,0z M39.7,16.6c-0.9,3.1-2.5,5.5-4.9,7.1c-2.4,1.6-5,2.4-7.7,2.4h-5.8c-0.3,0-0.5,0.2-0.6,0.4L17,39.5
		c-0.2,0.5-0.1,0.9,0.2,1.2c0.3,0.3,0.7,0.4,1.2,0.4h18.2c2,0,4.2,1.7,2,1.7h-28c-0.8,0-0.6-1.1-0.6-1.1c0.1-0.3,0.3-0.7,0.6-0.7h1
		c0.7,0,1.2-0.1,1.5-0.4c0.3-0.3,0.6-0.7,0.7-1.2l8.1-29c0.2-0.5,0.1-0.9-0.1-1.2c-0.2-0.3-0.6-0.4-1.3-0.4h-0.4
		c-0.4,0-0.7-0.4-0.6-0.8c0.1-0.3,0.3-0.4,0.6-0.4h11.5c3.4,0,5.7,0.8,7.1,2.5C40.1,11.9,40.4,14,39.7,16.6z"/>
</g>
<g id="XMLID_422_">
	<path id="XMLID_482_" class="st0" d="M58.3,36.7h2.1v-3.8h6.2V11.1h-8.3V36.7z M60.5,13.5h4v17h-4V13.5z"/>
	<path id="XMLID_483_" class="st0" d="M74.6,24.9v-7.1h3.6v-2.5h-3.6V7.3h-2.3v8.1H68v2.5h4.2v8c-1.6,0.6-3.1,1.2-4.3,1.5l0.8,2.5
		l3.5-1.4v11.8c0,0.5-0.2,0.6-0.7,0.6c-0.4,0-1.8,0-3.5,0c0.4,0.7,0.7,1.7,0.8,2.3c2.3,0,3.6-0.1,4.5-0.5c0.9-0.4,1.2-1.1,1.2-2.5
		V27.6l3.9-1.6L78,23.5L74.6,24.9z"/>
	<path id="XMLID_486_" class="st0" d="M87.5,7.6L85,7.2c-0.4,2.1-1.2,5.1-1.9,7.3h-3.4v29h2.2v-2.2h7.3v1.9h2.3V14.4h-6.1
		C86.1,12.4,86.8,9.9,87.5,7.6z M89.2,38.8h-7.3v-9.9h7.3V38.8z M89.2,16.9v9.6h-7.3v-9.6H89.2z"/>
	<path id="XMLID_490_" class="st0" d="M98,36.7h2.1v-3.8h6.2V11.1H98V36.7z M100.2,13.5h4v17h-4V13.5z"/>
	<path id="XMLID_491_" class="st0" d="M117.1,24.4l-3.4,1.3v-8h3.4v-2.3h-3.4V7.3h-2.3v8.1h-3.7v2.3h3.7v8.9c-1.6,0.6-3,1.2-4.2,1.6
		l0.9,2.4l3.3-1.3v11.2c0,0.5-0.2,0.6-0.6,0.6c-0.4,0-1.7,0-3.1,0c0.3,0.7,0.7,1.8,0.8,2.5c1.9,0,3.3-0.1,4.1-0.5
		c0.9-0.4,1.2-1.1,1.2-2.5V28.2c1.3-0.5,2.6-1.1,3.8-1.7L117.1,24.4z"/>
	<path id="XMLID_492_" class="st0" d="M131,19.3l-2.5-0.5c-0.6,6.4-1.9,15.4-3.1,20.9h-8.9v2.4h16.4v-2.4h-5.4
		C128.8,34.2,130.2,25.6,131,19.3z"/>
	<rect id="XMLID_493_" x="118.2" y="14.6" class="st0" width="14" height="2.3"/>
	<path id="XMLID_501_" class="st0" d="M121.2,38.1l2.3-0.6c-0.1-4.3-1-12.1-2.3-18.2l-2.1,0.5C120.3,25.8,121.2,33.7,121.2,38.1z"/>
	<path id="XMLID_502_" class="st0" d="M126.7,13.4c-0.3-1.7-1.2-4.3-2-6.3l-2.2,0.6c0.8,2,1.6,4.7,1.8,6.4L126.7,13.4z"/>
	<path id="XMLID_505_" class="st0" d="M167.5,15.5h6.3V13h-35.5v2.6h6.2c2.3,6,5.5,11.3,9.7,15.6c-4.4,3.7-9.7,6.5-16.4,8.4
		c0.6,0.6,1.3,1.8,1.6,2.4c6.7-2.1,12.2-5,16.6-9c4.5,4,10,7,16.5,8.8c0.4-0.7,1.2-1.8,1.8-2.4c-6.4-1.6-11.8-4.5-16.3-8.3
		C162.1,27,165.2,21.9,167.5,15.5z M147.1,15.5h17.5c-2.1,5.5-4.8,10.1-8.5,13.7C152.2,25.4,149.2,20.8,147.1,15.5z"/>
	<path id="XMLID_506_" class="st0" d="M158.9,11.8c-0.6-1.7-1.9-4.2-3.2-6.1L153,6.5c1.2,1.9,2.5,4.6,3,6.2L158.9,11.8z"/>
	<path id="XMLID_507_" class="st0" d="M199.3,32.2h14.1V30h-16.5v-3.4h-2.6V30H178v2.3h14.1c-3.5,3.2-9.4,6-14.7,7.2
		c0.6,0.5,1.3,1.5,1.6,2.1c5.6-1.5,11.6-4.7,15.3-8.5v9.1h2.6v-9.3c3.7,3.9,10,7.3,15.6,8.8c0.4-0.6,1.1-1.7,1.7-2.2
		C208.8,38.2,202.9,35.4,199.3,32.2z"/>
	<path id="XMLID_510_" class="st0" d="M179.3,27.9c7.3-0.5,13.2-1.5,17.7-3.3c5.1,1.1,9.5,2.3,12.8,3.5l2.2-1.8
		c-3.1-1.1-7.3-2.1-12-3.2c2.3-1.4,4.1-3.1,5.4-5.3h7.7v-2.2h-20.3c0.8-1,1.6-2,2.3-2.9l-2.4-0.8c-0.8,1.2-1.7,2.4-2.8,3.7h-11.4
		v2.2h9.4c-1.4,1.6-3,3.1-4.3,4.3c3.2,0.5,6.3,1,9.3,1.6c-3.9,1.1-8.7,1.7-14.5,2.1C178.7,26.3,179.1,27.2,179.3,27.9z M187.7,20.8
		c1-0.9,2-1.9,3-3h11.7c-1.4,1.9-3.3,3.4-5.8,4.6C193.7,21.7,190.7,21.2,187.7,20.8z"/>
	<path id="XMLID_511_" class="st0" d="M181.6,11.2h28.2v3.4h2.6V9h-15c-0.6-1-1.4-2.3-2.1-3.2l-2.2,0.8c0.4,0.7,1,1.6,1.5,2.4h-15.5
		v5.6h2.5V11.2z"/>
</g>
</svg>
