<?xml version="1.0" encoding="utf-8"?>
<!-- Generator: Adobe Illustrator 19.0.0, SVG Export Plug-In . SVG Version: 6.00 Build 0)  -->
<svg version="1.1" id="图层_1" xmlns="http://www.w3.org/2000/svg" xmlns:xlink="http://www.w3.org/1999/xlink" x="0px" y="0px"
	 viewBox="0 0 225.5 49.9" style="enable-background:new 0 0 225.5 49.9;" xml:space="preserve">
<style type="text/css">
	.st0{fill:#D70051;}
</style>
<g id="XMLID_495_">
	<path id="XMLID_496_" class="st0" d="M50.7,0h-0.5c3,0,5.3,2.4,5.3,5.3v39.2c0,3-2.4,5.3-5.3,5.3h0.5c5.7,0,10.3-4.6,10.3-10.3
		V10.3C61,4.6,56.4,0,50.7,0z"/>
	<path id="XMLID_497_" class="st0" d="M5.5,44.6V5.3c0-3,2.4-5.3,5.3-5.3h-0.5C4.6,0,0,4.6,0,10.3v29.3c0,5.7,4.6,10.3,10.3,10.3
		h0.5C7.9,49.9,5.5,47.5,5.5,44.6z"/>
	<path id="XMLID_500_" class="st0" d="M37.1,7.7H25.6c-0.3,0-0.5,0.2-0.6,0.4c-0.1,0.4,0.2,0.8,0.6,0.8H26c0.7,0,1.1,0.1,1.3,0.4
		c0.2,0.3,0.2,0.7,0.1,1.2l-8.1,28.9c-0.2,0.5-0.4,0.9-0.7,1.2c-0.3,0.3-0.9,0.4-1.5,0.4h-1c-0.3,0-0.5,0.4-0.6,0.7
		c0,0-0.2,1.1,0.6,1.1h28c2.2,0,0-1.7-2-1.7H23.9c-0.5,0-0.9-0.1-1.2-0.4c-0.3-0.3-0.3-0.7-0.2-1.2l3.6-12.9
		c0.1-0.3,0.3-0.4,0.6-0.4h5.8c2.7,0,5.3-0.8,7.7-2.4c2.4-1.6,4-4,4.9-7.1c0.7-2.6,0.4-4.7-0.9-6.4C42.8,8.5,40.5,7.7,37.1,7.7z
		 M41.6,16.8c-0.8,3-2.2,5.1-4.1,6.3c-1.9,1.2-3.8,1.8-5.9,1.8h-4.3c-0.4,0-0.7-0.4-0.6-0.8l3.8-13.6c0.2-0.5,0.4-0.9,0.8-1.2
		c0.4-0.3,0.9-0.4,1.4-0.4h2.8c2.8,0,4.7,0.6,5.6,1.9C42.3,12.1,42.4,14.1,41.6,16.8z"/>
</g>
<g id="XMLID_460_">
	<path id="XMLID_512_" class="st0" d="M77.6,32.5h-6.2v3.8h-2.1V10.6h8.3V32.5z M71.5,13v17h4V13H71.5z M89.5,25.5l-3.9,1.6v12.7
		c0,1.4-0.3,2.1-1.2,2.5c-0.9,0.4-2.2,0.5-4.5,0.5c-0.1-0.6-0.4-1.6-0.8-2.3c1.6,0,3.1,0,3.5,0c0.5,0,0.7-0.1,0.7-0.6V28l-3.5,1.4
		l-0.8-2.5c1.2-0.4,2.7-1,4.3-1.6v-8H79v-2.5h4.2V6.8h2.3v8.1h3.6v2.5h-3.6v7.1L89,23L89.5,25.5z M102.7,13.9v28.8h-2.3v-1.9H93V43
		h-2.2V13.9h3.4c0.7-2.2,1.5-5.2,1.9-7.3l2.5,0.4c-0.6,2.3-1.3,4.9-2,6.8H102.7z M93,16.4V26h7.3v-9.6H93z M100.3,38.3v-9.9H93v9.9
		H100.3z"/>
	<path id="XMLID_519_" class="st0" d="M117.5,32.5h-6.2v3.8h-2.1V10.6h8.4V32.5z M111.3,13v17h4V13H111.3z M128.7,26.1
		c-1.2,0.6-2.5,1.2-3.8,1.7V40c0,1.4-0.3,2.1-1.2,2.5c-0.8,0.4-2.1,0.5-4.1,0.5c-0.1-0.6-0.4-1.8-0.8-2.5c1.4,0.1,2.7,0,3.1,0
		c0.4,0,0.6-0.1,0.6-0.6V28.8l-3.3,1.4l-0.9-2.4c1.2-0.4,2.6-1,4.2-1.6v-8.9h-3.7v-2.3h3.7V6.8h2.4v8.1h3.4v2.3h-3.4v8l3.4-1.3
		L128.7,26.1z M144.1,39.3v2.4h-16.5v-2.4h8.9c1.2-5.6,2.5-14.6,3.1-21l2.5,0.5c-0.8,6.4-2.2,14.9-3.5,20.5H144.1z M143.4,16.4h-14
		v-2.4h14V16.4z M132.4,37.6c0-4.4-0.9-12.3-2-18.4l2.1-0.5c1.3,6.2,2.2,13.9,2.3,18.3L132.4,37.6z M135.5,13.7
		c-0.2-1.8-1-4.4-1.8-6.4l2.2-0.6c0.8,2,1.7,4.6,2,6.3L135.5,13.7z"/>
	<g id="XMLID_424_">
		<path id="XMLID_429_" class="st0" d="M149.7,8.8h13.5v2.5h-6c-0.6,3.4-1.5,6.8-2.6,9.8h7.4v17h-7.4v3.3h-2.3V26.4
			c-0.7,1.2-1.4,2.4-2.2,3.4c-0.2-0.6-0.8-2-1.3-2.7c2.8-3.8,4.7-9.6,5.8-15.9h-5V8.8z M159.6,23.4h-5v12.2h5V23.4z M179.2,34.3
			h-15.4v-2.4h15.4V34.3z M184.8,24c0,0,0,0.9-0.1,1.2c-0.9,10.8-1.8,14.9-3.2,16.4c-0.8,0.8-1.5,1.1-2.7,1.1c-1,0.1-2.8,0.1-4.7,0
			c-0.1-0.8-0.3-1.8-0.8-2.4c2,0.2,3.8,0.2,4.5,0.2c0.7,0,1.1,0,1.5-0.4c1-1,2-4.7,2.8-13.6h-15.6v0h-0.7c0.5-3.2,1-8.4,1.3-12.2
			l2.5,0.2c-0.2,3-0.6,6.8-1,9.8h8.7c0.5-4.1,1-9.1,1.4-12.6h-13.5V9h13.9l0.4-0.1l1.9,0.2c-0.3,4.1-1,10.1-1.6,15H184.8z"/>
		<path id="XMLID_439_" class="st0" d="M202.9,25.9c-1.7,0.6-3.4,1.2-5.1,1.8v11.8c0,1.6-0.4,2.3-1.4,2.7c-1,0.5-2.6,0.5-5.4,0.5
			c-0.1-0.7-0.5-1.8-0.8-2.5c1.9,0.1,3.7,0,4.2,0c0.6,0,0.8-0.2,0.8-0.8v-11c-2,0.6-3.8,1.3-5.4,1.8l-0.8-2.5
			c1.7-0.5,3.9-1.2,6.3-1.9v-8.7h-5.9v-2.5h5.9V6.6h2.6v8.1h4.9v2.5h-4.9v7.9c1.6-0.5,3.1-1,4.7-1.5L202.9,25.9z M213.3,12
			c-1,3.7-2.4,7.5-4.2,11.1h14.7v19.8h-2.6v-2.1h-12.1V43h-2.5V27.4c-1.4,2.2-3,4.1-4.7,5.8c-0.4-0.6-1.3-1.5-1.8-2
			c5.2-4.7,8.5-12.4,10.3-19.2h-7.9V9.4h23V12H213.3z M209.1,25.5v12.6h12.1V25.5H209.1z"/>
	</g>
</g>
</svg>
